<svg width="14" height="15" viewBox="0 0 14 15" fill="none" xmlns="http://www.w3.org/2000/svg">
<path d="M11.7715 3.23364C11.3796 3.19718 10.9922 3.13566 10.6094 3.04907C10.2266 2.96248 9.84831 2.85539 9.47461 2.72778C9.13737 2.60018 8.80697 2.4589 8.4834 2.30396C8.15983 2.14901 7.8431 1.97583 7.5332 1.78442C7.45117 1.73885 7.36458 1.70239 7.27344 1.67505C7.18229 1.64771 7.09115 1.63403 7 1.63403C6.90885 1.63403 6.81771 1.64771 6.72656 1.67505C6.63542 1.70239 6.54883 1.73885 6.4668 1.78442C6.1569 1.97583 5.84017 2.14901 5.5166 2.30396C5.19303 2.4589 4.86263 2.60018 4.52539 2.72778C4.15169 2.85539 3.77344 2.96248 3.39062 3.04907C3.00781 3.13566 2.62044 3.19718 2.22852 3.23364C2.10091 3.25187 1.98014 3.28833 1.86621 3.34302C1.75228 3.39771 1.6543 3.47518 1.57227 3.57544C1.49023 3.66658 1.42643 3.7714 1.38086 3.88989C1.33529 4.00838 1.3125 4.13143 1.3125 4.25903V7.28052C1.3125 7.84562 1.38542 8.39705 1.53125 8.93481C1.67708 9.47257 1.89128 9.98299 2.17383 10.4661C2.46549 10.9491 2.80957 11.3844 3.20605 11.7717C3.60254 12.1591 4.04688 12.4895 4.53906 12.7629L6.50781 13.8567C6.58073 13.9023 6.6582 13.9364 6.74023 13.9592C6.82227 13.982 6.90885 13.9934 7 13.9934C7.09115 13.9934 7.17773 13.982 7.25977 13.9592C7.3418 13.9364 7.41927 13.9023 7.49219 13.8567L9.46094 12.7629C9.95312 12.4895 10.3975 12.1591 10.7939 11.7717C11.1904 11.3844 11.5345 10.9491 11.8262 10.4661C12.1087 9.98299 12.3229 9.47257 12.4688 8.93481C12.6146 8.39705 12.6875 7.84562 12.6875 7.28052V4.25903C12.6875 4.13143 12.6647 4.00838 12.6191 3.88989C12.5736 3.7714 12.5098 3.66658 12.4277 3.57544C12.3457 3.47518 12.2477 3.39771 12.1338 3.34302C12.0199 3.28833 11.8991 3.25187 11.7715 3.23364ZM9.32422 6.74731L7.13672 9.07153C7.08203 9.12622 7.02051 9.16952 6.95215 9.20142C6.88379 9.23332 6.81315 9.25382 6.74023 9.26294C6.6582 9.26294 6.58301 9.24927 6.51465 9.22192C6.44629 9.19458 6.38021 9.15812 6.31641 9.11255L5.00391 7.95044C4.94922 7.89575 4.90592 7.83423 4.87402 7.76587C4.84212 7.69751 4.82161 7.62231 4.8125 7.54028C4.8125 7.46737 4.82389 7.39445 4.84668 7.32153C4.86947 7.24862 4.9082 7.18026 4.96289 7.11646C5.00846 7.06177 5.06771 7.01847 5.14062 6.98657C5.21354 6.95467 5.28646 6.93416 5.35938 6.92505C5.44141 6.92505 5.51888 6.93644 5.5918 6.95923C5.66471 6.98202 5.72852 7.02075 5.7832 7.07544L6.67188 7.86841L8.47656 5.94067C8.50391 5.91333 8.53353 5.88826 8.56543 5.86548C8.59733 5.84269 8.63151 5.82218 8.66797 5.80396C8.70443 5.78573 8.74089 5.77433 8.77734 5.76978C8.8138 5.76522 8.85482 5.76294 8.90039 5.76294C8.95508 5.76294 9.00977 5.76978 9.06445 5.78345C9.11914 5.79712 9.16927 5.82218 9.21484 5.85864C9.26042 5.88599 9.30143 5.92244 9.33789 5.96802C9.37435 6.01359 9.40625 6.05916 9.43359 6.10474C9.45182 6.15942 9.4655 6.21411 9.47461 6.2688C9.48372 6.32349 9.48372 6.38273 9.47461 6.44653C9.4655 6.50122 9.44727 6.55363 9.41992 6.60376C9.39258 6.65389 9.36068 6.70174 9.32422 6.74731Z" fill="#7166F5"/>
</svg>
