<svg width="14" height="10" viewBox="0 0 14 10" fill="none" xmlns="http://www.w3.org/2000/svg">
<path d="M1.11033 5.39122L11.4353 5.39844L8.31823 8.49272C8.2987 8.52655 8.27635 8.55875 8.25118 8.58933C8.22601 8.6199 8.20366 8.6521 8.18413 8.68593C8.17587 8.72627 8.16762 8.76661 8.15936 8.80695C8.15111 8.84729 8.14611 8.88199 8.14436 8.91106C8.14738 8.95791 8.15366 8.99912 8.16319 9.03469C8.17272 9.07026 8.18226 9.10584 8.19179 9.14141C8.20132 9.17698 8.21812 9.21299 8.24218 9.24944C8.26624 9.28589 8.28955 9.31062 8.3121 9.32364C8.33942 9.35445 8.36837 9.38244 8.39894 9.40761C8.42952 9.43278 8.46497 9.44949 8.50531 9.45774C8.53914 9.47727 8.57623 9.49117 8.61657 9.49942C8.65691 9.50768 8.7005 9.51029 8.74735 9.50727C8.77641 9.50902 8.81155 9.50675 8.85276 9.50047C8.89397 9.4942 8.92999 9.4774 8.96079 9.45008C8.99637 9.44055 9.03075 9.42657 9.06394 9.40814C9.09713 9.38972 9.12349 9.36359 9.14302 9.32976L13.2579 5.21032C13.313 5.16696 13.3545 5.1082 13.3823 5.03403C13.4101 4.95986 13.4233 4.88482 13.422 4.80891C13.4273 4.72172 13.4159 4.64374 13.388 4.57498C13.36 4.50621 13.3154 4.44666 13.2543 4.39632L9.15178 0.291165C9.09714 0.229549 9.03555 0.186477 8.96702 0.161946C8.89849 0.137415 8.82063 0.122533 8.73344 0.117299C8.65753 0.118576 8.58519 0.133193 8.51643 0.161151C8.44766 0.189108 8.38811 0.23366 8.33777 0.294808C8.27616 0.349446 8.23309 0.41103 8.20855 0.47956C8.18402 0.548091 8.16914 0.62595 8.16391 0.71314C8.15391 0.782543 8.16571 0.853254 8.1993 0.925273C8.2329 0.997293 8.27138 1.06085 8.31474 1.11596L11.4357 4.22591L1.11071 4.2187C1.0348 4.21997 0.962459 4.23459 0.893695 4.26255C0.82493 4.2905 0.759741 4.3318 0.698125 4.38644C0.647787 4.44759 0.605905 4.51362 0.572481 4.58453C0.539056 4.65544 0.522983 4.72886 0.52426 4.80477C0.525537 4.88068 0.542973 4.95465 0.576568 5.02667C0.610164 5.09869 0.648642 5.16225 0.692003 5.21736C0.74664 5.27897 0.811043 5.32367 0.885212 5.35146C0.959381 5.37924 1.03442 5.3925 1.11033 5.39122Z" fill="white"/>
</svg>
