<svg width="21" height="26" viewBox="0 0 21 26" fill="none" xmlns="http://www.w3.org/2000/svg">
<g clip-path="url(#clip0_804_2877)">
<path d="M6.91567 14.1641H17.9508C18.5758 14.1641 19.1097 13.9427 19.5524 13.5C19.9951 13.0573 20.2165 12.5234 20.2165 11.8984V7.26953C20.2165 7.26953 20.2165 7.26628 20.2165 7.25977C20.2165 7.25325 20.2165 7.25 20.2165 7.25C20.2165 7.23698 20.2165 7.23047 20.2165 7.23047C20.2165 7.23047 20.2165 7.22396 20.2165 7.21094C20.2165 7.21094 20.2165 7.20768 20.2165 7.20117C20.2165 7.19466 20.2165 7.19141 20.2165 7.19141C20.2165 7.19141 20.2132 7.18815 20.2067 7.18164C20.2002 7.17513 20.1969 7.16536 20.1969 7.15234C20.1969 7.15234 20.1969 7.14909 20.1969 7.14258C20.1969 7.13607 20.1969 7.13281 20.1969 7.13281C20.1969 7.13281 20.1969 7.12956 20.1969 7.12305C20.1969 7.11654 20.1969 7.11328 20.1969 7.11328C20.1969 7.10026 20.1937 7.09375 20.1872 7.09375C20.1806 7.09375 20.1774 7.08724 20.1774 7.07422C20.1774 7.07422 20.1774 7.07096 20.1774 7.06445C20.1774 7.05794 20.1774 7.05469 20.1774 7.05469C20.1774 7.05469 20.1741 7.05143 20.1676 7.04492C20.1611 7.03841 20.1579 7.03516 20.1579 7.03516C20.1579 7.02214 20.1579 7.01562 20.1579 7.01562C20.1448 7.0026 20.1383 6.99609 20.1383 6.99609C20.1383 6.99609 20.1383 6.98958 20.1383 6.97656C20.1383 6.97656 20.1318 6.97005 20.1188 6.95703C20.1188 6.95703 20.1188 6.95378 20.1188 6.94727C20.1188 6.94075 20.1188 6.9375 20.1188 6.9375C20.1058 6.9375 20.0993 6.93425 20.0993 6.92773C20.0993 6.92122 20.0993 6.91797 20.0993 6.91797C20.0993 6.91797 20.096 6.91471 20.0895 6.9082C20.083 6.90169 20.0797 6.89844 20.0797 6.89844C20.0797 6.89844 20.0765 6.89518 20.07 6.88867C20.0635 6.88216 20.0602 6.87891 20.0602 6.87891C20.0602 6.87891 20.0569 6.87565 20.0504 6.86914C20.0439 6.86263 20.0407 6.85938 20.0407 6.85938C20.0407 6.85938 20.0374 6.85612 20.0309 6.84961C20.0244 6.8431 20.0211 6.83984 20.0211 6.83984C20.0211 6.83984 20.0179 6.83659 20.0114 6.83008C20.0049 6.82357 20.0016 6.82031 20.0016 6.82031C20.0016 6.82031 19.9984 6.81706 19.9918 6.81055C19.9853 6.80404 19.9821 6.80078 19.9821 6.80078C19.9691 6.80078 19.9625 6.80078 19.9625 6.80078C19.9495 6.80078 19.943 6.79753 19.943 6.79102C19.943 6.7845 19.9365 6.78125 19.9235 6.78125C19.9235 6.78125 19.9235 6.778 19.9235 6.77148C19.9235 6.76497 19.917 6.76172 19.904 6.76172C19.904 6.76172 19.9007 6.76172 19.8942 6.76172C19.8877 6.76172 19.8844 6.76172 19.8844 6.76172C19.8844 6.7487 19.8812 6.74219 19.8747 6.74219C19.8681 6.74219 19.8649 6.74219 19.8649 6.74219C19.8519 6.74219 19.8454 6.74219 19.8454 6.74219C19.8454 6.74219 19.8388 6.74219 19.8258 6.74219C19.8258 6.72917 19.8226 6.72266 19.8161 6.72266C19.8096 6.72266 19.8063 6.72266 19.8063 6.72266C19.8063 6.72266 19.803 6.72266 19.7965 6.72266C19.79 6.72266 19.7868 6.72266 19.7868 6.72266C19.7868 6.72266 19.7835 6.72266 19.777 6.72266C19.7705 6.72266 19.7607 6.72266 19.7477 6.72266C19.7477 6.72266 19.7477 6.7194 19.7477 6.71289C19.7477 6.70638 19.7412 6.70312 19.7282 6.70312L5.76333 4.78906V2.83594C5.76333 2.82292 5.76333 2.81315 5.76333 2.80664C5.76333 2.80013 5.76333 2.79037 5.76333 2.77734C5.76333 2.77734 5.76333 2.77083 5.76333 2.75781C5.76333 2.75781 5.76333 2.75456 5.76333 2.74805C5.76333 2.74154 5.76333 2.73177 5.76333 2.71875C5.75031 2.71875 5.7438 2.71549 5.7438 2.70898C5.7438 2.70247 5.7438 2.69922 5.7438 2.69922C5.7438 2.6862 5.7438 2.67969 5.7438 2.67969C5.7438 2.66667 5.7438 2.6569 5.7438 2.65039C5.7438 2.64388 5.73729 2.64062 5.72426 2.64062C5.72426 2.64062 5.72426 2.63737 5.72426 2.63086C5.72426 2.62435 5.72426 2.62109 5.72426 2.62109C5.72426 2.60807 5.72426 2.60156 5.72426 2.60156C5.72426 2.60156 5.71775 2.59505 5.70473 2.58203C5.70473 2.58203 5.70473 2.57878 5.70473 2.57227C5.70473 2.56576 5.70473 2.5625 5.70473 2.5625C5.70473 2.5625 5.70148 2.55924 5.69497 2.55273C5.68846 2.54622 5.6852 2.54297 5.6852 2.54297C5.6852 2.54297 5.6852 2.53971 5.6852 2.5332C5.6852 2.52669 5.67869 2.52344 5.66567 2.52344C5.66567 2.52344 5.66567 2.52018 5.66567 2.51367C5.66567 2.50716 5.66567 2.50391 5.66567 2.50391C5.66567 2.50391 5.66242 2.50065 5.65591 2.49414C5.64939 2.48763 5.64614 2.48438 5.64614 2.48438C5.64614 2.48438 5.64288 2.48112 5.63637 2.47461C5.62986 2.4681 5.62661 2.46484 5.62661 2.46484C5.62661 2.46484 5.62335 2.46159 5.61684 2.45508C5.61033 2.44857 5.60708 2.44531 5.60708 2.44531C5.60708 2.44531 5.60708 2.44206 5.60708 2.43555C5.60708 2.42904 5.60057 2.42578 5.58755 2.42578C5.58755 2.42578 5.58429 2.42253 5.57778 2.41602C5.57127 2.40951 5.56801 2.40625 5.56801 2.40625C5.56801 2.40625 5.56476 2.40299 5.55825 2.39648C5.55174 2.38997 5.54848 2.38672 5.54848 2.38672C5.54848 2.38672 5.54523 2.38672 5.53872 2.38672C5.53221 2.38672 5.52895 2.38021 5.52895 2.36719C5.51593 2.36719 5.50617 2.36393 5.49966 2.35742C5.49314 2.35091 5.48989 2.34766 5.48989 2.34766C5.47687 2.33463 5.46385 2.32812 5.45083 2.32812C5.43781 2.32812 5.4313 2.32162 5.4313 2.30859L2.40395 1.03906C2.26072 0.986979 2.11749 0.990234 1.97426 1.04883C1.83104 1.10742 1.72687 1.20182 1.66176 1.33203C1.60968 1.47526 1.61294 1.61849 1.67153 1.76172C1.73012 1.90495 1.83104 2.00912 1.97426 2.07422L4.65005 3.20703V15.3555C4.65005 15.9284 4.8421 16.4297 5.22622 16.8594C5.61033 17.2891 6.07583 17.5365 6.6227 17.6016C6.53156 17.7708 6.45669 17.9531 6.39809 18.1484C6.3395 18.3438 6.3102 18.5456 6.3102 18.7539C6.3102 19.3789 6.5283 19.9095 6.9645 20.3457C7.4007 20.7819 7.9313 21 8.5563 21C9.16828 21 9.69236 20.7819 10.1286 20.3457C10.5648 19.9095 10.7829 19.3789 10.7829 18.7539C10.7829 18.5586 10.7568 18.3633 10.7047 18.168C10.6526 17.9727 10.581 17.7904 10.4899 17.6211H15.4704C15.3792 17.7904 15.3043 17.9727 15.2457 18.168C15.1872 18.3633 15.1579 18.5586 15.1579 18.7539C15.1579 19.3789 15.3792 19.9095 15.8219 20.3457C16.2646 20.7819 16.792 21 17.404 21C18.0159 21 18.5433 20.7819 18.986 20.3457C19.4287 19.9095 19.65 19.3789 19.65 18.7539C19.65 18.1419 19.4287 17.6178 18.986 17.1816C18.5433 16.7454 18.0159 16.5273 17.404 16.5273H6.91567C6.60317 16.5273 6.33299 16.4134 6.10512 16.1855C5.87726 15.9577 5.76333 15.681 5.76333 15.3555V13.8516C5.9326 13.9557 6.11489 14.0339 6.3102 14.0859C6.50551 14.138 6.70734 14.1641 6.91567 14.1641ZM9.68911 18.7539C9.68911 19.0664 9.57843 19.3333 9.35708 19.5547C9.13572 19.776 8.8688 19.8867 8.5563 19.8867C8.2438 19.8867 7.97687 19.776 7.75551 19.5547C7.53416 19.3333 7.42348 19.0664 7.42348 18.7539C7.42348 18.4414 7.53416 18.1745 7.75551 17.9531C7.97687 17.7318 8.2438 17.6211 8.5563 17.6211C8.8688 17.6211 9.13572 17.7318 9.35708 17.9531C9.57843 18.1745 9.68911 18.4414 9.68911 18.7539ZM18.5368 18.7539C18.5368 19.0664 18.4261 19.3333 18.2047 19.5547C17.9834 19.776 17.7165 19.8867 17.404 19.8867C17.0915 19.8867 16.8245 19.776 16.6032 19.5547C16.3818 19.3333 16.2711 19.0664 16.2711 18.7539C16.2711 18.4414 16.3818 18.1745 16.6032 17.9531C16.8245 17.7318 17.0915 17.6211 17.404 17.6211C17.7165 17.6211 17.9834 17.7318 18.2047 17.9531C18.4261 18.1745 18.5368 18.4414 18.5368 18.7539ZM17.9508 13.0508H6.91567C6.60317 13.0508 6.33299 12.9401 6.10512 12.7188C5.87726 12.4974 5.76333 12.224 5.76333 11.8984V5.90234L19.1032 7.73828V11.8984C19.1032 12.224 18.9892 12.4974 18.7614 12.7188C18.5335 12.9401 18.2633 13.0508 17.9508 13.0508Z" fill="#D0CCFF"/>
</g>
<defs>
<clipPath id="clip0_804_2877">
<rect width="20" height="20" fill="white" transform="matrix(1 0 0 -1 0.919922 21)"/>
</clipPath>
</defs>
</svg>
