<svg width="18" height="19" viewBox="0 0 18 19" fill="none" xmlns="http://www.w3.org/2000/svg">
<g clip-path="url(#clip0_804_2480)">
<path d="M9 0.800049C7.75781 0.800049 6.5918 1.03442 5.50195 1.50317C4.41211 1.98364 3.45996 2.6311 2.64551 3.44556C1.83105 4.26001 1.18359 5.21216 0.703125 6.302C0.234375 7.39185 0 8.55786 0 9.80005C0 11.0422 0.234375 12.2083 0.703125 13.2981C1.18359 14.3879 1.83105 15.3401 2.64551 16.1545C3.45996 16.969 4.41211 17.6165 5.50195 18.0969C6.5918 18.5657 7.75781 18.8 9 18.8C10.2422 18.8 11.4082 18.5657 12.498 18.0969C13.5879 17.6165 14.54 16.969 15.3545 16.1545C16.1689 15.3401 16.8164 14.3879 17.2969 13.2981C17.7656 12.2083 18 11.0422 18 9.80005C18 8.55786 17.7656 7.39185 17.2969 6.302C16.8164 5.21216 16.1689 4.26001 15.3545 3.44556C14.54 2.6311 13.5879 1.98364 12.498 1.50317C11.4082 1.03442 10.2422 0.800049 9 0.800049ZM14.0273 7.427L8.2793 13.1399C8.11523 13.304 7.91309 13.3918 7.67285 13.4036C7.43262 13.4153 7.21875 13.3333 7.03125 13.1575L3.99023 10.3801C3.81445 10.2161 3.7207 10.011 3.70898 9.76489C3.69727 9.5188 3.76758 9.30786 3.91992 9.13208C4.0957 8.94458 4.30664 8.8479 4.55273 8.84204C4.79883 8.83618 5.00977 8.91528 5.18555 9.07935L7.59375 11.2942L12.7441 6.1438C12.9199 5.96802 13.1338 5.88013 13.3857 5.88013C13.6377 5.88013 13.8516 5.96802 14.0273 6.1438C14.2148 6.3313 14.3086 6.5481 14.3086 6.79419C14.3086 7.04028 14.2148 7.25122 14.0273 7.427Z" fill="#7166F5"/>
</g>
<defs>
<clipPath id="clip0_804_2480">
<rect width="18" height="18" fill="white" transform="matrix(1 0 0 -1 0 18.8)"/>
</clipPath>
</defs>
</svg>
