<svg width="50" height="50" viewBox="0 0 50 50" fill="none" xmlns="http://www.w3.org/2000/svg">
<g clip-path="url(#clip0_804_2437)">
<path d="M49.2676 7.86133C48.7467 6.29883 47.9329 4.94792 46.8262 3.80859C45.7194 2.66927 44.401 1.79036 42.8711 1.17188C41.5365 0.61849 40.1286 0.301107 38.6475 0.219727C37.1663 0.138346 35.7259 0.292969 34.3262 0.683594C33.3496 0.94401 32.4626 1.29395 31.665 1.7334C30.8675 2.17285 30.1921 2.68555 29.6387 3.27148C29.0202 3.95508 28.597 4.70378 28.3691 5.51758C28.1413 6.33138 28.1087 7.17773 28.2715 8.05664C28.2715 8.12174 28.2796 8.19499 28.2959 8.27637C28.3122 8.35775 28.3366 8.43099 28.3691 8.49609C28.1413 8.75651 27.9215 9.00065 27.71 9.22852C27.4984 9.45638 27.2949 9.70052 27.0996 9.96094C26.9368 9.70052 26.7497 9.45638 26.5381 9.22852C26.3265 9.00065 26.1068 8.75651 25.8789 8.49609C25.9115 8.43099 25.9359 8.35775 25.9521 8.27637C25.9684 8.19499 25.9766 8.12174 25.9766 8.05664C26.1393 7.17773 26.1068 6.33138 25.8789 5.51758C25.651 4.70378 25.2279 3.95508 24.6094 3.27148C24.056 2.68555 23.3805 2.16471 22.583 1.70898C21.7855 1.25326 20.8984 0.911458 19.9219 0.683594C18.5221 0.292969 17.0817 0.138346 15.6006 0.219727C14.1195 0.301107 12.7116 0.61849 11.377 1.17188C9.84701 1.79036 8.52865 2.66927 7.42188 3.80859C6.3151 4.94792 5.48503 6.29883 4.93164 7.86133C4.89909 7.99154 4.89909 8.12988 4.93164 8.27637C4.96419 8.42285 5.0293 8.54492 5.12695 8.64258C5.25716 8.74023 5.38737 8.7972 5.51758 8.81348C5.64779 8.82975 5.77799 8.80534 5.9082 8.74023C7.92643 7.86133 9.56217 7.69043 10.8154 8.22754C12.0687 8.76465 13.2324 9.42383 14.3066 10.2051C14.3717 10.2376 14.4206 10.2702 14.4531 10.3027C14.4857 10.3353 14.5345 10.3841 14.5996 10.4492C15.9342 11.4258 17.1143 12.0931 18.1396 12.4512C19.165 12.8092 20.0684 12.9883 20.8496 12.9883C21.2077 12.9883 21.5413 12.9557 21.8506 12.8906C22.1598 12.8255 22.4447 12.7441 22.7051 12.6465C23.2585 12.4186 23.763 12.085 24.2188 11.6455C24.6745 11.2061 25.0488 10.6771 25.3418 10.0586C25.5371 10.2539 25.7161 10.4655 25.8789 10.6934C26.0417 10.9212 26.2207 11.1491 26.416 11.377V15.332C25.0163 15.3971 23.6735 15.6657 22.3877 16.1377C21.1019 16.6097 19.9219 17.2526 18.8477 18.0664C18.6849 18.1966 18.5872 18.3594 18.5547 18.5547C18.5221 18.75 18.571 18.929 18.7012 19.0918C18.7988 19.2546 18.9453 19.3441 19.1406 19.3604C19.3359 19.3766 19.515 19.3359 19.6777 19.2383C20.752 18.4245 21.9238 17.806 23.1934 17.3828C24.4629 16.9596 25.765 16.748 27.0996 16.748C27.0996 16.748 27.1077 16.748 27.124 16.748C27.1403 16.748 27.1484 16.748 27.1484 16.748C28.8411 16.748 30.4199 17.0573 31.8848 17.6758C33.3822 18.3268 34.6924 19.2057 35.8154 20.3125C36.9385 21.4193 37.8092 22.7214 38.4277 24.2188C39.0788 25.7161 39.4043 27.3112 39.4043 29.0039C39.4043 30.3385 39.1927 31.6325 38.7695 32.8857C38.3464 34.139 37.7279 35.3027 36.9141 36.377L29.0039 39.4531C29.0365 39.0951 29.0283 38.7288 28.9795 38.3545C28.9307 37.9801 28.8574 37.6139 28.7598 37.2559C28.6947 37.028 28.6133 36.8164 28.5156 36.6211C28.418 36.4258 28.3203 36.2467 28.2227 36.084C29.1341 35.8236 29.8503 35.3516 30.3711 34.668C30.8919 33.9844 31.2012 33.2845 31.2988 32.5684C31.4616 31.5918 31.307 30.721 30.835 29.9561C30.363 29.1911 29.6549 28.6458 28.7109 28.3203C28.5482 28.2552 28.3936 28.1982 28.2471 28.1494C28.1006 28.1006 27.9622 28.0436 27.832 27.9785V23.2422C28.2552 23.3073 28.5889 23.4212 28.833 23.584C29.0771 23.7467 29.2155 23.8444 29.248 23.877C29.3783 24.0072 29.541 24.0641 29.7363 24.0479C29.9316 24.0316 30.0944 23.9583 30.2246 23.8281C30.3548 23.6654 30.4199 23.4863 30.4199 23.291C30.4199 23.0957 30.3548 22.9329 30.2246 22.8027C30.1921 22.8027 29.9723 22.6562 29.5654 22.3633C29.1585 22.0703 28.5807 21.875 27.832 21.7773V20.6543C27.832 20.459 27.7669 20.2881 27.6367 20.1416C27.5065 19.9951 27.3275 19.9219 27.0996 19.9219C26.9043 19.9219 26.7415 19.9951 26.6113 20.1416C26.4811 20.2881 26.416 20.459 26.416 20.6543V21.8262C26.2858 21.8262 26.1719 21.8424 26.0742 21.875C25.9766 21.9076 25.8789 21.9401 25.7812 21.9727C25.1302 22.168 24.5931 22.5098 24.1699 22.998C23.7467 23.4863 23.4701 24.0723 23.3398 24.7559C23.2096 25.3743 23.234 25.9521 23.4131 26.4893C23.5921 27.0264 23.8932 27.4577 24.3164 27.7832C24.5768 28.0111 24.8779 28.2145 25.2197 28.3936C25.5615 28.5726 25.9603 28.7598 26.416 28.9551V33.9844C26.3835 33.9518 26.3509 33.9274 26.3184 33.9111C26.2858 33.8949 26.2695 33.8867 26.2695 33.8867L24.0723 32.4219C23.1608 31.8359 21.875 31.2093 20.2148 30.542C18.5547 29.8747 16.7806 29.6875 14.8926 29.9805C14.86 29.8177 14.8438 29.6549 14.8438 29.4922C14.8438 29.3294 14.8438 29.1667 14.8438 29.0039C14.8438 27.6042 15.0716 26.2451 15.5273 24.9268C15.9831 23.6084 16.6504 22.4121 17.5293 21.3379C17.6595 21.1751 17.7165 20.9961 17.7002 20.8008C17.6839 20.6055 17.5944 20.4427 17.4316 20.3125C17.2689 20.1823 17.0898 20.1253 16.8945 20.1416C16.6992 20.1579 16.5365 20.2474 16.4062 20.4102C15.4297 21.6146 14.681 22.9574 14.1602 24.4385C13.6393 25.9196 13.3789 27.4414 13.3789 29.0039C13.3789 29.1992 13.387 29.4108 13.4033 29.6387C13.4196 29.8665 13.444 30.0781 13.4766 30.2734C13.3789 30.306 13.2894 30.3385 13.208 30.3711C13.1266 30.4036 13.0371 30.4362 12.9395 30.4688L10.8398 31.2988V30.9082C10.8398 30.3874 10.6527 29.9316 10.2783 29.541C9.90397 29.1504 9.4401 28.9551 8.88672 28.9551H1.36719C1.17188 28.9551 1.00911 29.0283 0.878906 29.1748C0.748698 29.3213 0.683594 29.4922 0.683594 29.6875C0.683594 29.8828 0.748698 30.0537 0.878906 30.2002C1.00911 30.3467 1.17188 30.4199 1.36719 30.4199H8.88672C9.04948 30.4199 9.17969 30.4688 9.27734 30.5664C9.375 30.6641 9.42383 30.778 9.42383 30.9082V44.9219C9.42383 45.0846 9.375 45.2148 9.27734 45.3125C9.17969 45.4102 9.04948 45.459 8.88672 45.459H1.36719C1.17188 45.459 1.00911 45.5241 0.878906 45.6543C0.748698 45.7845 0.683594 45.9473 0.683594 46.1426C0.683594 46.3379 0.748698 46.5088 0.878906 46.6553C1.00911 46.8018 1.17188 46.875 1.36719 46.875H8.88672C9.4401 46.875 9.90397 46.6878 10.2783 46.3135C10.6527 45.9391 10.8398 45.4753 10.8398 44.9219V44.5312C12.0443 44.5638 12.9964 44.7347 13.6963 45.0439C14.3962 45.3532 15.6413 46.0449 17.4316 47.1191L17.5293 47.168C18.6686 47.8516 19.6452 48.3561 20.459 48.6816C21.2728 49.0072 22.0703 49.1862 22.8516 49.2188C22.9167 49.2188 22.9736 49.2188 23.0225 49.2188C23.0713 49.2188 23.1283 49.2188 23.1934 49.2188C23.9746 49.2188 24.7477 49.0967 25.5127 48.8525C26.2777 48.6084 27.0833 48.291 27.9297 47.9004L35.2051 44.5312C35.3678 44.4336 35.4818 44.2952 35.5469 44.1162C35.612 43.9372 35.612 43.75 35.5469 43.5547C35.4492 43.3919 35.3109 43.278 35.1318 43.2129C34.9528 43.1478 34.7656 43.1478 34.5703 43.2129L27.3438 46.582C25.5859 47.3958 24.1292 47.7946 22.9736 47.7783C21.818 47.762 20.2474 47.1517 18.2617 45.9473L18.1641 45.8984C16.3411 44.7917 15.0146 44.0592 14.1846 43.7012C13.3545 43.3431 12.2396 43.1478 10.8398 43.1152V32.8125L13.4766 31.7871C13.6393 31.7546 13.7939 31.7139 13.9404 31.665C14.0869 31.6162 14.2415 31.5592 14.4043 31.4941C16.1947 31.071 17.9036 31.1768 19.5312 31.8115C21.1589 32.4463 22.4121 33.0566 23.291 33.6426L25.4395 35.0586C26.4486 35.7096 27.0915 36.5885 27.3682 37.6953C27.6449 38.8021 27.6367 39.681 27.3438 40.332C27.2461 40.625 27.0752 40.861 26.8311 41.04C26.5869 41.2191 26.3021 41.3249 25.9766 41.3574C25.7487 41.3574 25.5046 41.3249 25.2441 41.2598C24.9837 41.1947 24.7559 41.097 24.5605 40.9668C24.4629 40.9342 24.3652 40.8936 24.2676 40.8447C24.1699 40.7959 24.0885 40.7389 24.0234 40.6738L18.0664 36.8164C17.9036 36.7188 17.7246 36.6862 17.5293 36.7188C17.334 36.7513 17.1875 36.849 17.0898 37.0117C16.9596 37.207 16.9189 37.3942 16.9678 37.5732C17.0166 37.7523 17.1224 37.9069 17.2852 38.0371L23.2422 41.8945C23.8932 42.3177 24.6257 42.6025 25.4395 42.749C26.2533 42.8955 27.002 42.7083 27.6855 42.1875C27.8809 42.0573 28.0436 41.9027 28.1738 41.7236C28.304 41.5446 28.4342 41.3574 28.5645 41.1621L40.1367 36.6699C40.9505 36.3444 41.5934 36.2793 42.0654 36.4746C42.5374 36.6699 42.8385 36.9466 42.9688 37.3047C43.1641 37.7279 43.1478 38.1999 42.9199 38.7207C42.6921 39.2415 42.2038 39.681 41.4551 40.0391L37.4512 41.8945C37.2884 41.9596 37.1745 42.0898 37.1094 42.2852C37.0443 42.4805 37.0443 42.6595 37.1094 42.8223C37.207 43.0176 37.3454 43.1478 37.5244 43.2129C37.7035 43.278 37.8906 43.2617 38.0859 43.1641L42.0898 41.3086C43.2292 40.7878 43.9616 40.0798 44.2871 39.1846C44.6126 38.2894 44.6126 37.4674 44.2871 36.7188C43.9941 36.0352 43.4489 35.5143 42.6514 35.1562C41.8538 34.7982 40.8529 34.847 39.6484 35.3027L39.209 35.498C39.7624 34.4889 40.1774 33.4391 40.4541 32.3486C40.7308 31.2581 40.8691 30.1432 40.8691 29.0039C40.8691 27.181 40.5273 25.4557 39.8438 23.8281C39.1602 22.2005 38.2324 20.7764 37.0605 19.5557C35.8887 18.335 34.5052 17.3503 32.9102 16.6016C31.3477 15.8529 29.6549 15.4297 27.832 15.332V11.377C27.9948 11.1491 28.1657 10.9212 28.3447 10.6934C28.5238 10.4655 28.7109 10.2539 28.9062 10.0586C29.1992 10.6771 29.5736 11.2061 30.0293 11.6455C30.485 12.085 30.9896 12.4186 31.543 12.6465C31.8034 12.7441 32.0882 12.8255 32.3975 12.8906C32.7067 12.9557 33.0404 12.9883 33.3984 12.9883C34.1797 12.9883 35.083 12.8092 36.1084 12.4512C37.1338 12.0931 38.3138 11.4258 39.6484 10.4492C39.7135 10.3841 39.7624 10.3353 39.7949 10.3027C39.8275 10.2702 39.8763 10.2376 39.9414 10.2051C41.0156 9.42383 42.1794 8.76465 43.4326 8.22754C44.6859 7.69043 46.3216 7.86133 48.3398 8.74023C48.4701 8.80534 48.6003 8.82975 48.7305 8.81348C48.8607 8.7972 48.9909 8.74023 49.1211 8.64258C49.2188 8.54492 49.2839 8.42285 49.3164 8.27637C49.349 8.12988 49.3327 7.99154 49.2676 7.86133ZM22.168 11.3281C21.3216 11.6536 20.3288 11.6374 19.1895 11.2793C18.0501 10.9212 16.7969 10.2539 15.4297 9.27734C15.3971 9.24479 15.3564 9.21224 15.3076 9.17969C15.2588 9.14714 15.2181 9.11458 15.1855 9.08203C14.4043 8.49609 13.5335 7.92643 12.5732 7.37305C11.613 6.81966 10.4818 6.54297 9.17969 6.54297C8.85417 6.54297 8.50423 6.56738 8.12988 6.61621C7.75553 6.66504 7.35677 6.75456 6.93359 6.88477C8.20312 4.54102 10.0667 3.00293 12.5244 2.27051C14.9821 1.53809 17.334 1.46484 19.5801 2.05078C20.8496 2.3763 22.0459 2.99479 23.1689 3.90625C24.292 4.81771 24.7721 5.98958 24.6094 7.42188C23.8932 6.90104 23.0062 6.4209 21.9482 5.98145C20.8903 5.54199 19.5801 5.20833 18.0176 4.98047C17.8223 4.94792 17.6432 4.98861 17.4805 5.10254C17.3177 5.21647 17.2201 5.37109 17.1875 5.56641C17.1549 5.76172 17.1956 5.94076 17.3096 6.10352C17.4235 6.26628 17.5781 6.36393 17.7734 6.39648C19.4336 6.6569 20.7682 7.00684 21.7773 7.44629C22.7865 7.88574 23.6165 8.38216 24.2676 8.93555C24.0397 9.52148 23.7467 10.0179 23.3887 10.4248C23.0306 10.8317 22.6237 11.1328 22.168 11.3281ZM26.416 27.3926C26.1556 27.2624 25.9277 27.1403 25.7324 27.0264C25.5371 26.9124 25.3743 26.7904 25.2441 26.6602C25.0163 26.4974 24.8617 26.2695 24.7803 25.9766C24.6989 25.6836 24.6908 25.3581 24.7559 25C24.821 24.707 24.9674 24.3896 25.1953 24.0479C25.4232 23.7061 25.7487 23.4701 26.1719 23.3398C26.2044 23.3398 26.2451 23.3317 26.2939 23.3154C26.3428 23.2992 26.3835 23.291 26.416 23.291V27.3926ZM27.832 34.668V29.541C27.8971 29.541 27.9622 29.5573 28.0273 29.5898C28.0924 29.6224 28.1576 29.6387 28.2227 29.6387C29.1341 29.9642 29.6468 30.4362 29.7607 31.0547C29.8747 31.6732 29.9154 32.0964 29.8828 32.3242C29.8177 32.8125 29.6143 33.2845 29.2725 33.7402C28.9307 34.196 28.4505 34.5052 27.832 34.668ZM39.0625 9.08203C39.0299 9.11458 38.9893 9.14714 38.9404 9.17969C38.8916 9.21224 38.8509 9.24479 38.8184 9.27734C37.4512 10.2539 36.1979 10.9212 35.0586 11.2793C33.9193 11.6374 32.9264 11.6536 32.0801 11.3281C31.6243 11.1328 31.2174 10.8317 30.8594 10.4248C30.5013 10.0179 30.2083 9.52148 29.9805 8.93555C30.6315 8.38216 31.4616 7.88574 32.4707 7.44629C33.4798 7.00684 34.8145 6.6569 36.4746 6.39648C36.6699 6.36393 36.8245 6.26628 36.9385 6.10352C37.0524 5.94076 37.0931 5.76172 37.0605 5.56641C37.028 5.37109 36.9303 5.21647 36.7676 5.10254C36.6048 4.98861 36.4258 4.94792 36.2305 4.98047C34.668 5.20833 33.3577 5.54199 32.2998 5.98145C31.2419 6.4209 30.3548 6.90104 29.6387 7.42188C29.4759 5.98958 29.9561 4.81771 31.0791 3.90625C32.2021 2.99479 33.3984 2.3763 34.668 2.05078C35.1888 1.92057 35.7096 1.82292 36.2305 1.75781C36.7513 1.69271 37.2884 1.66016 37.8418 1.66016C39.6647 1.66016 41.4551 2.0752 43.2129 2.90527C44.9707 3.73535 46.3216 5.06185 47.2656 6.88477C45.3776 6.36393 43.7907 6.41276 42.5049 7.03125C41.2191 7.64974 40.0716 8.33333 39.0625 9.08203Z" fill="white"/>
</g>
<defs>
<clipPath id="clip0_804_2437">
<rect width="50" height="50" fill="white" transform="matrix(1 0 0 -1 0 50)"/>
</clipPath>
</defs>
</svg>
