<svg width="50" height="50" viewBox="0 0 50 50" fill="none" xmlns="http://www.w3.org/2000/svg">
<g clip-path="url(#clip0_804_2441)">
<path d="M48.7793 43.9453H47.7539V41.7969C47.7539 41.6992 47.7295 41.6097 47.6807 41.5283C47.6318 41.4469 47.5749 41.3737 47.5098 41.3086C47.4447 41.2435 47.3714 41.1947 47.29 41.1621C47.2087 41.1296 47.1191 41.1133 47.0215 41.1133H44.873V34.1309C44.873 34.0658 44.8568 33.9844 44.8242 33.8867C44.7917 33.7891 44.7428 33.7077 44.6777 33.6426C44.5801 33.5775 44.4906 33.5286 44.4092 33.4961C44.3278 33.4635 44.2383 33.4473 44.1406 33.4473H42.9688V16.9434H44.1406C44.2383 16.9434 44.3278 16.9271 44.4092 16.8945C44.4906 16.862 44.5801 16.8132 44.6777 16.748C44.7428 16.6829 44.7917 16.6097 44.8242 16.5283C44.8568 16.4469 44.873 16.3574 44.873 16.2598V13.1348H47.0215C47.1191 13.1348 47.2087 13.1185 47.29 13.0859C47.3714 13.0534 47.4447 13.0046 47.5098 12.9395C47.5749 12.8743 47.6318 12.793 47.6807 12.6953C47.7295 12.5977 47.7539 12.5 47.7539 12.4023V9.57031C47.7539 9.47266 47.7295 9.375 47.6807 9.27734C47.6318 9.17969 47.5749 9.09831 47.5098 9.0332C47.4447 8.9681 47.3714 8.91927 47.29 8.88672C47.2087 8.85417 47.1191 8.83789 47.0215 8.83789H45.8008V6.68945C45.8008 6.5918 45.7926 6.51042 45.7764 6.44531C45.7601 6.38021 45.7194 6.31511 45.6543 6.25C45.6217 6.18489 45.5729 6.12793 45.5078 6.0791C45.4427 6.03027 45.3776 6.00586 45.3125 6.00586L25.1953 0.244141C25.1302 0.21159 25.0651 0.195312 25 0.195312C24.9349 0.195312 24.8698 0.21159 24.8047 0.244141L4.6875 6.00586C4.6224 6.00586 4.55729 6.03027 4.49219 6.0791C4.42708 6.12793 4.36198 6.18489 4.29688 6.25C4.26432 6.31511 4.23991 6.38021 4.22363 6.44531C4.20736 6.51042 4.19922 6.5918 4.19922 6.68945V8.83789H2.97852C2.88086 8.83789 2.79134 8.85417 2.70996 8.88672C2.62858 8.91927 2.55534 8.9681 2.49023 9.0332C2.42513 9.09831 2.36816 9.17969 2.31934 9.27734C2.27051 9.375 2.24609 9.47266 2.24609 9.57031V12.4023C2.24609 12.5 2.27051 12.5977 2.31934 12.6953C2.36816 12.793 2.42513 12.8743 2.49023 12.9395C2.55534 13.0046 2.62858 13.0534 2.70996 13.0859C2.79134 13.1185 2.88086 13.1348 2.97852 13.1348H5.12695V16.2598C5.12695 16.3574 5.14323 16.4469 5.17578 16.5283C5.20833 16.6097 5.25716 16.6829 5.32227 16.748C5.38737 16.8132 5.46875 16.862 5.56641 16.8945C5.66406 16.9271 5.76172 16.9434 5.85938 16.9434H7.03125V33.4473H5.85938C5.76172 33.4473 5.66406 33.4635 5.56641 33.4961C5.46875 33.5286 5.38737 33.5775 5.32227 33.6426C5.25716 33.7077 5.20833 33.7891 5.17578 33.8867C5.14323 33.9844 5.12695 34.0658 5.12695 34.1309V41.1133H2.97852C2.88086 41.1133 2.79134 41.1296 2.70996 41.1621C2.62858 41.1947 2.55534 41.2435 2.49023 41.3086C2.42513 41.3737 2.36816 41.4469 2.31934 41.5283C2.27051 41.6097 2.24609 41.6992 2.24609 41.7969V43.9453H1.2207C1.12305 43.9453 1.02539 43.9697 0.927734 44.0186C0.830078 44.0674 0.748698 44.1243 0.683594 44.1895C0.61849 44.2546 0.569661 44.3278 0.537109 44.4092C0.504557 44.4906 0.488281 44.5801 0.488281 44.6777V48.5352C0.488281 48.6003 0.504557 48.6816 0.537109 48.7793C0.569661 48.877 0.61849 48.9583 0.683594 49.0234C0.748698 49.0885 0.830078 49.1374 0.927734 49.1699C1.02539 49.2025 1.12305 49.2188 1.2207 49.2188H48.7793C48.877 49.2188 48.9746 49.2025 49.0723 49.1699C49.1699 49.1374 49.2513 49.0885 49.3164 49.0234C49.3815 48.9583 49.4303 48.877 49.4629 48.7793C49.4954 48.6816 49.5117 48.6003 49.5117 48.5352V44.6777C49.5117 44.5801 49.4954 44.4906 49.4629 44.4092C49.4303 44.3278 49.3815 44.2546 49.3164 44.1895C49.2513 44.1243 49.1699 44.0674 49.0723 44.0186C48.9746 43.9697 48.877 43.9453 48.7793 43.9453ZM43.4082 41.1133H37.207V34.8633H43.4082V41.1133ZM13.5254 33.4473H12.3047V16.9434H13.5254C13.623 16.9434 13.7126 16.9271 13.7939 16.8945C13.8753 16.862 13.9486 16.8132 14.0137 16.748C14.0788 16.6829 14.1276 16.6097 14.1602 16.5283C14.1927 16.4469 14.209 16.3574 14.209 16.2598V13.1348H35.791V16.2598C35.791 16.3574 35.8073 16.4469 35.8398 16.5283C35.8724 16.6097 35.9212 16.6829 35.9863 16.748C36.0514 16.8132 36.1247 16.862 36.2061 16.8945C36.2874 16.9271 36.377 16.9434 36.4746 16.9434H37.6953V33.4473H36.4746C36.377 33.4473 36.2874 33.4635 36.2061 33.4961C36.1247 33.5286 36.0514 33.5775 35.9863 33.6426C35.9212 33.7077 35.8724 33.7891 35.8398 33.8867C35.8073 33.9844 35.791 34.0658 35.791 34.1309V41.1133H14.209V34.1309C14.209 34.0658 14.1927 33.9844 14.1602 33.8867C14.1276 33.7891 14.0788 33.7077 14.0137 33.6426C13.9486 33.5775 13.8753 33.5286 13.7939 33.4961C13.7126 33.4635 13.623 33.4473 13.5254 33.4473ZM41.5039 33.4473H39.1113V16.9434H41.5039V33.4473ZM43.4082 15.5273H37.207V13.1348H43.4082V15.5273ZM5.61523 7.22656L25 1.66016L44.3848 7.22656V8.83789H5.61523V7.22656ZM3.71094 10.2539H46.2891V11.7188H3.71094V10.2539ZM6.5918 13.1348H12.793V15.5273H6.5918V13.1348ZM8.49609 16.9434H10.8887V33.4473H8.49609V16.9434ZM6.5918 34.8633H12.793V41.1133H6.5918V34.8633ZM3.71094 42.5293H46.2891V43.9453H3.71094V42.5293ZM48.0957 47.8027H1.9043V45.4102H48.0957V47.8027ZM24.7559 37.8418C24.821 37.8743 24.9023 37.8906 25 37.8906C25.0977 37.8906 25.179 37.8743 25.2441 37.8418C26.5462 37.321 27.7344 36.6292 28.8086 35.7666C29.8828 34.904 30.8105 33.903 31.5918 32.7637C32.373 31.6243 32.9671 30.3955 33.374 29.0771C33.7809 27.7588 33.9844 26.416 33.9844 25.0488V19.3359C33.9844 19.2708 33.9762 19.2057 33.96 19.1406C33.9437 19.0755 33.9193 19.0104 33.8867 18.9453C33.8216 18.8802 33.7646 18.8232 33.7158 18.7744C33.667 18.7256 33.61 18.7012 33.5449 18.7012L25.2441 15.4297C25.179 15.3971 25.0977 15.3809 25 15.3809C24.9023 15.3809 24.821 15.3971 24.7559 15.4297L16.4551 18.7012C16.39 18.7012 16.333 18.7256 16.2842 18.7744C16.2354 18.8232 16.1784 18.8802 16.1133 18.9453C16.0807 19.0104 16.0563 19.0755 16.04 19.1406C16.0238 19.2057 16.0156 19.2708 16.0156 19.3359V25.0488C16.0156 26.416 16.2191 27.7588 16.626 29.0771C17.0329 30.3955 17.627 31.6243 18.4082 32.7637C19.1895 33.903 20.1172 34.904 21.1914 35.7666C22.2656 36.6292 23.4538 37.321 24.7559 37.8418ZM17.4316 19.8242L25 16.8945L32.5684 19.8242V25.0488C32.5684 26.2533 32.3893 27.4333 32.0312 28.5889C31.6732 29.7445 31.1686 30.8431 30.5176 31.8848C29.834 32.8939 29.0202 33.7809 28.0762 34.5459C27.1322 35.3109 26.1068 35.9212 25 36.377C23.8932 35.9212 22.8678 35.3109 21.9238 34.5459C20.9798 33.7809 20.166 32.8939 19.4824 31.8848C18.8314 30.8431 18.3268 29.7445 17.9688 28.5889C17.6107 27.4333 17.4316 26.2533 17.4316 25.0488V19.8242ZM24.0723 30.7129C24.2025 30.7129 24.3245 30.6966 24.4385 30.6641C24.5524 30.6315 24.6745 30.599 24.8047 30.5664C24.9349 30.5013 25.0488 30.4362 25.1465 30.3711C25.2441 30.306 25.3418 30.2246 25.4395 30.127L30.0781 25.5371C30.1107 25.472 30.1351 25.4232 30.1514 25.3906C30.1676 25.3581 30.1921 25.3255 30.2246 25.293C30.2246 25.2279 30.2327 25.179 30.249 25.1465C30.2653 25.1139 30.2734 25.0651 30.2734 25C30.2734 24.9674 30.2653 24.9268 30.249 24.8779C30.2327 24.8291 30.2246 24.7721 30.2246 24.707C30.1921 24.6745 30.1676 24.6419 30.1514 24.6094C30.1351 24.5768 30.1107 24.5443 30.0781 24.5117L28.3203 22.7539C28.2878 22.7214 28.2552 22.6969 28.2227 22.6807C28.1901 22.6644 28.1576 22.64 28.125 22.6074C28.0599 22.6074 28.0029 22.5993 27.9541 22.583C27.9053 22.5667 27.8646 22.5586 27.832 22.5586C27.7995 22.5586 27.7588 22.5667 27.71 22.583C27.6611 22.5993 27.6042 22.6074 27.5391 22.6074C27.5065 22.64 27.474 22.6644 27.4414 22.6807C27.4089 22.6969 27.3763 22.7214 27.3438 22.7539L24.0723 26.0254L22.6562 24.6094C22.6237 24.5768 22.5911 24.5524 22.5586 24.5361C22.526 24.5199 22.4935 24.4954 22.4609 24.4629C22.3958 24.4629 22.3389 24.4548 22.29 24.4385C22.2412 24.4222 22.2005 24.4141 22.168 24.4141C22.1029 24.4141 22.054 24.4222 22.0215 24.4385C21.9889 24.4548 21.9401 24.4629 21.875 24.4629C21.8424 24.4954 21.8099 24.5199 21.7773 24.5361C21.7448 24.5524 21.7122 24.5768 21.6797 24.6094L19.9219 26.3672C19.8893 26.3997 19.8649 26.4323 19.8486 26.4648C19.8324 26.4974 19.8079 26.5462 19.7754 26.6113C19.7428 26.6439 19.7266 26.6846 19.7266 26.7334C19.7266 26.7822 19.7266 26.8229 19.7266 26.8555C19.7266 26.9206 19.7266 26.9694 19.7266 27.002C19.7266 27.0345 19.7428 27.0833 19.7754 27.1484C19.8079 27.181 19.8324 27.2217 19.8486 27.2705C19.8649 27.3193 19.8893 27.36 19.9219 27.3926L22.7051 30.127C22.8027 30.2246 22.9004 30.306 22.998 30.3711C23.0957 30.4362 23.2096 30.5013 23.3398 30.5664C23.4375 30.599 23.5514 30.6315 23.6816 30.6641C23.8118 30.6966 23.9421 30.7129 24.0723 30.7129ZM22.168 26.1719L23.584 27.5391C23.6165 27.5716 23.6491 27.6042 23.6816 27.6367C23.7142 27.6693 23.7467 27.7018 23.7793 27.7344C23.8444 27.7344 23.9014 27.7425 23.9502 27.7588C23.999 27.7751 24.0397 27.7832 24.0723 27.7832C24.1048 27.7832 24.1455 27.7751 24.1943 27.7588C24.2432 27.7425 24.3001 27.7344 24.3652 27.7344C24.3978 27.7018 24.4303 27.6693 24.4629 27.6367C24.4954 27.6042 24.528 27.5716 24.5605 27.5391L27.832 24.3164L28.5645 25L24.4141 29.1504C24.3815 29.1829 24.3327 29.2074 24.2676 29.2236C24.2025 29.2399 24.1374 29.248 24.0723 29.248C24.0072 29.248 23.9421 29.2399 23.877 29.2236C23.8118 29.2074 23.763 29.1829 23.7305 29.1504L21.4355 26.8555L22.168 26.1719ZM27.8809 5.95703H22.1191C22.0215 5.95703 21.932 5.97331 21.8506 6.00586C21.7692 6.03841 21.696 6.08724 21.6309 6.15234C21.5658 6.21745 21.5088 6.29883 21.46 6.39648C21.4111 6.49414 21.3867 6.5918 21.3867 6.68945C21.3867 6.78711 21.4111 6.87663 21.46 6.95801C21.5088 7.03939 21.5658 7.11263 21.6309 7.17773C21.696 7.24284 21.7692 7.29167 21.8506 7.32422C21.932 7.35677 22.0215 7.37305 22.1191 7.37305H27.8809C27.9785 7.37305 28.068 7.35677 28.1494 7.32422C28.2308 7.29167 28.304 7.24284 28.3691 7.17773C28.4342 7.11263 28.4912 7.03939 28.54 6.95801C28.5889 6.87663 28.6133 6.78711 28.6133 6.68945C28.6133 6.5918 28.5889 6.49414 28.54 6.39648C28.4912 6.29883 28.4342 6.21745 28.3691 6.15234C28.304 6.08724 28.2308 6.03841 28.1494 6.00586C28.068 5.97331 27.9785 5.95703 27.8809 5.95703ZM24.5117 4.98047H25.4883C25.5859 4.98047 25.6755 4.96419 25.7568 4.93164C25.8382 4.89909 25.9115 4.85026 25.9766 4.78516C26.0417 4.72005 26.0905 4.64681 26.123 4.56543C26.1556 4.48405 26.1719 4.39453 26.1719 4.29688C26.1719 4.19922 26.1556 4.10156 26.123 4.00391C26.0905 3.90625 26.0417 3.82487 25.9766 3.75977C25.9115 3.69466 25.8382 3.64583 25.7568 3.61328C25.6755 3.58073 25.5859 3.56445 25.4883 3.56445H24.5117C24.4141 3.56445 24.3245 3.58073 24.2432 3.61328C24.1618 3.64583 24.0885 3.69466 24.0234 3.75977C23.9583 3.82487 23.9014 3.90625 23.8525 4.00391C23.8037 4.10156 23.7793 4.19922 23.7793 4.29688C23.7793 4.39453 23.8037 4.48405 23.8525 4.56543C23.9014 4.64681 23.9583 4.72005 24.0234 4.78516C24.0885 4.85026 24.1618 4.89909 24.2432 4.93164C24.3245 4.96419 24.4141 4.98047 24.5117 4.98047Z" fill="white"/>
</g>
<defs>
<clipPath id="clip0_804_2441">
<rect width="50" height="50" fill="white" transform="matrix(1 0 0 -1 0 50)"/>
</clipPath>
</defs>
</svg>
