<svg width="50" height="50" viewBox="0 0 50 50" fill="none" xmlns="http://www.w3.org/2000/svg">
<path d="M24.9512 9.81445C25.179 9.81445 25.3581 9.74121 25.4883 9.59473C25.6185 9.44824 25.6836 9.27734 25.6836 9.08203V8.98438C26.0091 8.85417 26.2858 8.65071 26.5137 8.37402C26.7415 8.09733 26.888 7.77995 26.9531 7.42188C27.0508 6.96614 26.9857 6.55111 26.7578 6.17676C26.5299 5.80241 26.1882 5.53386 25.7324 5.37109C25.5371 5.30599 25.3337 5.22461 25.1221 5.12695C24.9105 5.0293 24.7396 4.93164 24.6094 4.83398C24.6094 4.83398 24.6094 4.81771 24.6094 4.78516C24.6094 4.75261 24.6094 4.70378 24.6094 4.63867C24.6419 4.60612 24.6663 4.57357 24.6826 4.54102C24.6989 4.50846 24.7396 4.49219 24.8047 4.49219C25 4.42708 25.1546 4.41895 25.2686 4.46777C25.3825 4.5166 25.4395 4.55729 25.4395 4.58984C25.6022 4.72005 25.7812 4.76888 25.9766 4.73633C26.1719 4.70378 26.3346 4.62239 26.4648 4.49219C26.5951 4.32943 26.652 4.14225 26.6357 3.93066C26.6195 3.71907 26.5299 3.56445 26.3672 3.4668C26.3021 3.36914 26.2126 3.28776 26.0986 3.22266C25.9847 3.15755 25.8464 3.10872 25.6836 3.07617C25.6836 2.88086 25.6185 2.70996 25.4883 2.56348C25.3581 2.41699 25.179 2.34375 24.9512 2.34375C24.7559 2.34375 24.585 2.41699 24.4385 2.56348C24.292 2.70996 24.2188 2.88086 24.2188 3.07617V3.125C23.9583 3.22266 23.7305 3.39355 23.5352 3.6377C23.3398 3.88184 23.2259 4.15039 23.1934 4.44336C23.1283 4.73633 23.1445 5.02116 23.2422 5.29785C23.3398 5.57454 23.5026 5.81055 23.7305 6.00586C23.9258 6.16862 24.1536 6.30696 24.4141 6.4209C24.6745 6.53483 24.9512 6.64062 25.2441 6.73828C25.2767 6.73828 25.3418 6.77083 25.4395 6.83594C25.5371 6.90104 25.5697 7.01497 25.5371 7.17773C25.5046 7.27539 25.4476 7.38118 25.3662 7.49512C25.2848 7.60905 25.1465 7.66602 24.9512 7.66602C24.7559 7.66602 24.6094 7.64974 24.5117 7.61719C24.4141 7.58464 24.2839 7.51953 24.1211 7.42188C23.9583 7.32422 23.7793 7.2998 23.584 7.34863C23.3887 7.39746 23.2422 7.50325 23.1445 7.66602C23.0143 7.82878 22.9736 8.00781 23.0225 8.20312C23.0713 8.39844 23.1771 8.5612 23.3398 8.69141C23.5026 8.78906 23.6572 8.87044 23.8037 8.93555C23.9502 9.00065 24.0885 9.04948 24.2188 9.08203C24.2188 9.27734 24.292 9.44824 24.4385 9.59473C24.585 9.74121 24.7559 9.81445 24.9512 9.81445ZM44.9707 26.4648C44.4173 25.7161 43.7826 25.0488 43.0664 24.4629C42.3503 23.877 41.5527 23.4212 40.6738 23.0957C40.3809 22.9655 40.1449 22.7783 39.9658 22.5342C39.7868 22.29 39.6973 22.0052 39.6973 21.6797V20.2148C40.2832 20.1172 40.7715 19.8568 41.1621 19.4336C41.5527 19.0104 41.748 18.4896 41.748 17.8711C41.748 17.5781 41.6911 17.2852 41.5771 16.9922C41.4632 16.6992 41.2923 16.4388 41.0645 16.2109C40.8691 16.0482 40.6576 15.9098 40.4297 15.7959C40.2018 15.682 39.9577 15.6087 39.6973 15.5762V13.2812C39.6973 12.4023 39.388 11.6455 38.7695 11.0107C38.151 10.376 37.4023 10.0586 36.5234 10.0586H29.5898C30.0456 9.50521 30.4036 8.88672 30.6641 8.20312C30.9245 7.51953 31.0547 6.80339 31.0547 6.05469C31.0547 5.66406 31.0221 5.28157 30.957 4.90723C30.8919 4.53288 30.778 4.16667 30.6152 3.80859C30.5501 3.61328 30.4281 3.47493 30.249 3.39355C30.07 3.31218 29.8828 3.32031 29.6875 3.41797C29.4922 3.48307 29.3538 3.60514 29.2725 3.78418C29.1911 3.96321 29.1992 4.15039 29.2969 4.3457C29.3945 4.60612 29.4678 4.88281 29.5166 5.17578C29.5654 5.46875 29.5898 5.76172 29.5898 6.05469C29.5898 6.90104 29.3864 7.67415 28.9795 8.37402C28.5726 9.07389 28.0111 9.63542 27.2949 10.0586H22.7051C21.9889 9.63542 21.4274 9.07389 21.0205 8.37402C20.6136 7.67415 20.4102 6.90104 20.4102 6.05469C20.4102 4.78516 20.8577 3.7028 21.7529 2.80762C22.6481 1.91243 23.7305 1.46484 25 1.46484C25.4557 1.46484 25.8952 1.52995 26.3184 1.66016C26.7415 1.79036 27.1322 1.9694 27.4902 2.19727C27.653 2.29492 27.8402 2.32747 28.0518 2.29492C28.2633 2.26237 28.418 2.16471 28.5156 2.00195C28.6133 1.80664 28.6458 1.61133 28.6133 1.41602C28.5807 1.2207 28.4668 1.07422 28.2715 0.976562C27.7832 0.651043 27.2624 0.406902 26.709 0.244141C26.1556 0.0813789 25.5859 0 25 0C23.3398 0 21.9157 0.594074 20.7275 1.78223C19.5394 2.97038 18.9453 4.39453 18.9453 6.05469C18.9453 6.80339 19.0755 7.51953 19.3359 8.20312C19.5964 8.88672 19.9544 9.50521 20.4102 10.0586H13.4766C12.5977 10.0586 11.849 10.376 11.2305 11.0107C10.612 11.6455 10.3027 12.4023 10.3027 13.2812V15.5762C9.7168 15.6413 9.22852 15.8936 8.83789 16.333C8.44727 16.7725 8.25195 17.2852 8.25195 17.8711C8.25195 18.1966 8.30892 18.4977 8.42285 18.7744C8.53678 19.0511 8.70768 19.3034 8.93555 19.5312C9.13086 19.7266 9.34245 19.8812 9.57031 19.9951C9.79818 20.109 10.0423 20.1823 10.3027 20.2148V21.6797C10.3027 22.0052 10.2132 22.29 10.0342 22.5342C9.85514 22.7783 9.61914 22.9655 9.32617 23.0957C8.44727 23.4212 7.64974 23.877 6.93359 24.4629C6.21745 25.0488 5.58268 25.7161 5.0293 26.4648C4.50846 27.2461 4.10156 28.0924 3.80859 29.0039C3.51562 29.9154 3.36914 30.8594 3.36914 31.8359V40.625C3.36914 43.1966 4.28874 45.402 6.12793 47.2412C7.96712 49.0804 10.1888 50 12.793 50H37.207C39.8112 50 42.0329 49.0804 43.8721 47.2412C45.7113 45.402 46.6309 43.1966 46.6309 40.625V31.8359C46.6309 30.8594 46.4844 29.9154 46.1914 29.0039C45.8984 28.0924 45.4915 27.2461 44.9707 26.4648ZM13.4766 11.5234H36.5234C37.0117 11.5234 37.4186 11.6943 37.7441 12.0361C38.0697 12.3779 38.2324 12.793 38.2324 13.2812V15.5273H11.7676V13.2812C11.7676 12.793 11.9303 12.3779 12.2559 12.0361C12.5814 11.6943 12.9883 11.5234 13.4766 11.5234ZM15.0391 41.0645C15.0716 41.0319 15.096 41.0156 15.1123 41.0156C15.1286 41.0156 15.1367 41.0156 15.1367 41.0156C15.1693 41.0156 15.1937 41.0156 15.21 41.0156C15.2262 41.0156 15.2507 41.0319 15.2832 41.0645C15.2832 41.0645 15.2995 41.0726 15.332 41.0889C15.3646 41.1051 15.3971 41.1458 15.4297 41.2109L16.1621 42.8223C16.1947 42.8874 16.1947 42.9606 16.1621 43.042C16.1296 43.1234 16.0807 43.1803 16.0156 43.2129L8.1543 46.7773C8.12174 46.8099 8.08105 46.818 8.03223 46.8018C7.9834 46.7855 7.95898 46.7773 7.95898 46.7773C7.92643 46.7773 7.89388 46.7611 7.86133 46.7285C7.82878 46.696 7.79622 46.6634 7.76367 46.6309L7.03125 45.0195C6.9987 44.9544 6.9987 44.8812 7.03125 44.7998C7.0638 44.7184 7.11263 44.6615 7.17773 44.6289L15.0391 41.0645ZM19.9707 39.7461C20.0033 39.7135 20.0358 39.6891 20.0684 39.6729C20.1009 39.6566 20.1335 39.6484 20.166 39.6484C20.166 39.6484 20.1742 39.6403 20.1904 39.624C20.2067 39.6077 20.2148 39.5996 20.2148 39.5996C20.2474 39.5996 20.2718 39.6077 20.2881 39.624C20.3044 39.6403 20.3288 39.6484 20.3613 39.6484L21.875 40.5273C21.9727 40.5924 22.0296 40.6657 22.0459 40.7471C22.0622 40.8285 22.054 40.9017 22.0215 40.9668L17.6758 48.3887C17.6432 48.4538 17.6107 48.4945 17.5781 48.5107C17.5456 48.527 17.513 48.5352 17.4805 48.5352H17.2852C17.2852 48.5352 17.2689 48.5352 17.2363 48.5352L15.7227 47.6074C15.6901 47.5749 15.6576 47.5423 15.625 47.5098C15.5924 47.4772 15.5762 47.4609 15.5762 47.4609C15.5762 47.4284 15.5762 47.3877 15.5762 47.3389C15.5762 47.29 15.5924 47.2493 15.625 47.2168L19.9707 39.7461ZM25.8789 40.5762V38.8184C25.8789 38.7533 25.9115 38.6882 25.9766 38.623C26.0417 38.5579 26.1068 38.5254 26.1719 38.5254H33.9355C33.4147 38.7858 32.9427 39.1195 32.5195 39.5264C32.0964 39.9333 31.7383 40.3809 31.4453 40.8691H26.1719C26.1068 40.8691 26.0417 40.8447 25.9766 40.7959C25.9115 40.7471 25.8789 40.6738 25.8789 40.5762ZM21.3867 44.873C21.5169 45.2637 21.7367 45.5811 22.0459 45.8252C22.3551 46.0693 22.7051 46.1914 23.0957 46.1914H24.4629C24.4303 46.224 24.4141 46.2646 24.4141 46.3135C24.4141 46.3623 24.4141 46.4193 24.4141 46.4844V48.2422C24.4141 48.3073 24.4141 48.3643 24.4141 48.4131C24.4141 48.4619 24.4303 48.5026 24.4629 48.5352H19.2871L21.3867 44.873ZM32.7637 48.5352H26.1719C26.1068 48.5352 26.0417 48.5026 25.9766 48.4375C25.9115 48.3724 25.8789 48.3073 25.8789 48.2422V46.4844C25.8789 46.3867 25.9115 46.3135 25.9766 46.2646C26.0417 46.2158 26.1068 46.1914 26.1719 46.1914H31.0547C31.25 46.6471 31.486 47.0703 31.7627 47.4609C32.0394 47.8516 32.373 48.2096 32.7637 48.5352ZM36.7188 48.5352C35.4492 48.5352 34.3587 48.0876 33.4473 47.1924C32.5358 46.2972 32.0801 45.2148 32.0801 43.9453C32.0801 42.6758 32.5358 41.5853 33.4473 40.6738C34.3587 39.7624 35.4492 39.3066 36.7188 39.3066C37.9883 39.3066 39.0706 39.7624 39.9658 40.6738C40.861 41.5853 41.3086 42.6758 41.3086 43.9453C41.3086 45.2148 40.861 46.2972 39.9658 47.1924C39.0706 48.0876 37.9883 48.5352 36.7188 48.5352ZM30.8105 42.334C30.7454 42.5944 30.6966 42.8548 30.6641 43.1152C30.6315 43.3757 30.6152 43.6523 30.6152 43.9453C30.6152 44.0755 30.6234 44.2057 30.6396 44.3359C30.6559 44.4661 30.6641 44.5964 30.6641 44.7266H23.0957C22.998 44.7266 22.9248 44.694 22.876 44.6289C22.8271 44.5638 22.8027 44.4987 22.8027 44.4336V42.627C22.8027 42.5618 22.8271 42.4967 22.876 42.4316C22.9248 42.3665 22.998 42.334 23.0957 42.334H30.8105ZM9.47266 47.8027L15.0879 45.2148L14.3555 46.4844C14.2253 46.6797 14.1439 46.8913 14.1113 47.1191C14.0788 47.347 14.0951 47.5749 14.1602 47.8027C14.1927 47.9329 14.2415 48.0632 14.3066 48.1934C14.3717 48.3236 14.4531 48.4375 14.5508 48.5352H12.793C12.207 48.5352 11.6292 48.4701 11.0596 48.3398C10.4899 48.2096 9.96094 48.0306 9.47266 47.8027ZM45.166 40.625C45.166 41.9271 44.873 43.1315 44.2871 44.2383C43.7012 45.3451 42.9199 46.2565 41.9434 46.9727C42.2038 46.5169 42.4072 46.0368 42.5537 45.5322C42.7002 45.0277 42.7734 44.4987 42.7734 43.9453C42.7734 42.2526 42.1794 40.8122 40.9912 39.624C39.8031 38.4359 38.3789 37.8418 36.7188 37.8418C36.6211 37.8418 36.5397 37.8418 36.4746 37.8418C36.4095 37.8418 36.3444 37.8581 36.2793 37.8906C36.1165 37.6302 35.9049 37.4268 35.6445 37.2803C35.3841 37.1338 35.1074 37.0605 34.8145 37.0605H33.9355C33.9355 37.028 33.9355 36.9873 33.9355 36.9385C33.9355 36.8896 33.9355 36.8327 33.9355 36.7676V35.0098C33.9355 34.5215 33.7646 34.1064 33.4229 33.7646C33.0811 33.4229 32.666 33.252 32.1777 33.252H28.7598C28.5645 33.252 28.3936 33.3252 28.2471 33.4717C28.1006 33.6182 28.0273 33.7891 28.0273 33.9844C28.0273 34.1797 28.1006 34.3506 28.2471 34.4971C28.3936 34.6436 28.5645 34.7168 28.7598 34.7168H32.1777C32.2754 34.7168 32.3486 34.7412 32.3975 34.79C32.4463 34.8389 32.4707 34.9121 32.4707 35.0098V36.7676C32.4707 36.8652 32.4463 36.9385 32.3975 36.9873C32.3486 37.0361 32.2754 37.0605 32.1777 37.0605H23.584C23.4863 37.0605 23.4131 37.0361 23.3643 36.9873C23.3154 36.9385 23.291 36.8652 23.291 36.7676V35.0098C23.291 34.9121 23.3154 34.8389 23.3643 34.79C23.4131 34.7412 23.4863 34.7168 23.584 34.7168H25.3418C25.5371 34.7168 25.708 34.6436 25.8545 34.4971C26.001 34.3506 26.0742 34.1797 26.0742 33.9844C26.0742 33.7891 26.001 33.6182 25.8545 33.4717C25.708 33.3252 25.5371 33.252 25.3418 33.252H23.584C23.0957 33.252 22.6807 33.4229 22.3389 33.7646C21.9971 34.1064 21.8262 34.5215 21.8262 35.0098V36.7676C21.8262 37.2559 21.9971 37.6709 22.3389 38.0127C22.6807 38.3545 23.0957 38.5254 23.584 38.5254H24.4629C24.4303 38.5905 24.4141 38.6475 24.4141 38.6963C24.4141 38.7451 24.4141 38.7858 24.4141 38.8184V40.5762C24.4141 40.6413 24.4141 40.6982 24.4141 40.7471C24.4141 40.7959 24.4303 40.8366 24.4629 40.8691H23.4863C23.5189 40.5762 23.4619 40.2832 23.3154 39.9902C23.1689 39.6973 22.9492 39.4694 22.6562 39.3066L21.0938 38.3789C20.8984 38.2812 20.6868 38.2161 20.459 38.1836C20.2311 38.151 20.0033 38.1673 19.7754 38.2324C19.5475 38.265 19.3441 38.3545 19.165 38.501C18.986 38.6475 18.8314 38.8184 18.7012 39.0137L17.1875 41.6016L16.748 40.5762C16.6504 40.3809 16.5202 40.2018 16.3574 40.0391C16.1947 39.8763 15.9993 39.7624 15.7715 39.6973C15.5436 39.5996 15.3158 39.5508 15.0879 39.5508C14.86 39.5508 14.6484 39.5996 14.4531 39.6973L6.5918 43.3105C6.39648 43.3757 6.21745 43.4896 6.05469 43.6523C5.89193 43.8151 5.77799 43.9941 5.71289 44.1895C5.41992 43.6361 5.2002 43.0583 5.05371 42.4561C4.90723 41.8538 4.83398 41.2435 4.83398 40.625V31.8359C4.83398 30.1758 5.28971 28.6784 6.20117 27.3438C7.11263 26.0091 8.33333 25.0488 9.86328 24.4629C10.4167 24.235 10.8724 23.8688 11.2305 23.3643C11.5885 22.8597 11.7676 22.2982 11.7676 21.6797V20.2148H13.8672C14.0625 20.2148 14.2334 20.1416 14.3799 19.9951C14.5264 19.8486 14.5996 19.6777 14.5996 19.4824C14.5996 19.2871 14.5264 19.1162 14.3799 18.9697C14.2334 18.8232 14.0625 18.75 13.8672 18.75H10.5957C10.4655 18.75 10.3516 18.7256 10.2539 18.6768C10.1562 18.6279 10.0586 18.571 9.96094 18.5059C9.89583 18.4082 9.83887 18.3105 9.79004 18.2129C9.74121 18.1152 9.7168 18.0013 9.7168 17.8711C9.7168 17.6432 9.79818 17.4398 9.96094 17.2607C10.1237 17.0817 10.3353 16.9922 10.5957 16.9922H39.4043C39.5345 16.9922 39.6484 17.0166 39.7461 17.0654C39.8438 17.1143 39.9414 17.1875 40.0391 17.2852C40.1042 17.3503 40.1611 17.4398 40.21 17.5537C40.2588 17.6676 40.2832 17.7734 40.2832 17.8711C40.2832 18.1315 40.2018 18.3431 40.0391 18.5059C39.8763 18.6686 39.6647 18.75 39.4043 18.75H17.2852C17.0898 18.75 16.9189 18.8232 16.7725 18.9697C16.626 19.1162 16.5527 19.2871 16.5527 19.4824C16.5527 19.6777 16.626 19.8486 16.7725 19.9951C16.9189 20.1416 17.0898 20.2148 17.2852 20.2148H38.2324V21.6797C38.2324 22.2982 38.4115 22.8597 38.7695 23.3643C39.1276 23.8688 39.5833 24.235 40.1367 24.4629C41.6667 25.0488 42.8874 26.0091 43.7988 27.3438C44.7103 28.6784 45.166 30.1758 45.166 31.8359V40.625ZM37.4023 43.2129C37.207 43.1478 37.0117 43.0664 36.8164 42.9688C36.6211 42.8711 36.4583 42.7897 36.3281 42.7246C36.3281 42.6921 36.32 42.6595 36.3037 42.627C36.2874 42.5944 36.2956 42.5456 36.3281 42.4805C36.3281 42.4805 36.3444 42.4561 36.377 42.4072C36.4095 42.3584 36.4421 42.334 36.4746 42.334C36.6699 42.2689 36.8245 42.2689 36.9385 42.334C37.0524 42.3991 37.1257 42.4316 37.1582 42.4316C37.2884 42.5618 37.4593 42.6188 37.6709 42.6025C37.8825 42.5863 38.0534 42.4967 38.1836 42.334C38.3138 42.1712 38.3708 41.9922 38.3545 41.7969C38.3382 41.6016 38.2487 41.4388 38.0859 41.3086C37.9883 41.2435 37.8825 41.1784 37.7686 41.1133C37.6546 41.0482 37.5326 40.9831 37.4023 40.918C37.4023 40.7227 37.3291 40.5518 37.1826 40.4053C37.0361 40.2588 36.8652 40.1855 36.6699 40.1855C36.4746 40.1855 36.3037 40.2588 36.1572 40.4053C36.0107 40.5518 35.9375 40.7227 35.9375 40.918V40.9668C35.6771 41.097 35.4492 41.276 35.2539 41.5039C35.0586 41.7318 34.9284 41.9922 34.8633 42.2852C34.7982 42.6107 34.8145 42.9118 34.9121 43.1885C35.0098 43.4652 35.1725 43.6849 35.4004 43.8477C35.5957 44.0104 35.8317 44.1488 36.1084 44.2627C36.3851 44.3766 36.6536 44.4824 36.9141 44.5801C36.9792 44.6126 37.0524 44.6533 37.1338 44.7021C37.2152 44.751 37.2396 44.8568 37.207 45.0195C37.207 45.1172 37.1663 45.223 37.085 45.3369C37.0036 45.4508 36.8652 45.5078 36.6699 45.5078C36.4421 45.5078 36.2874 45.4997 36.2061 45.4834C36.1247 45.4671 36.0026 45.4102 35.8398 45.3125C35.6771 45.1823 35.498 45.1416 35.3027 45.1904C35.1074 45.2393 34.9447 45.3451 34.8145 45.5078C34.7168 45.6706 34.6842 45.8496 34.7168 46.0449C34.7493 46.2402 34.8633 46.403 35.0586 46.5332C35.2214 46.6309 35.3678 46.7122 35.498 46.7773C35.6283 46.8424 35.7747 46.8913 35.9375 46.9238C35.9375 47.1191 36.0107 47.29 36.1572 47.4365C36.3037 47.583 36.4746 47.6562 36.6699 47.6562C36.8652 47.6562 37.0361 47.583 37.1826 47.4365C37.3291 47.29 37.4023 47.1191 37.4023 46.9238V46.8262C37.7279 46.696 38.0046 46.4925 38.2324 46.2158C38.4603 45.9391 38.6068 45.6217 38.6719 45.2637C38.737 44.8079 38.6556 44.3929 38.4277 44.0186C38.1999 43.6442 37.8581 43.3757 37.4023 43.2129Z" fill="#7166F5"/>
</svg>
