<svg width="18" height="18" viewBox="0 0 18 18" fill="none" xmlns="http://www.w3.org/2000/svg">
<path d="M0.210938 9.49219L3.88477 13.1484C4.02539 13.2891 4.19238 13.3594 4.38574 13.3594C4.5791 13.3594 4.74023 13.2891 4.86914 13.1484C5.00977 13.0078 5.08008 12.8408 5.08008 12.6475C5.08008 12.4541 5.00977 12.293 4.86914 12.1641L2.4082 9.70312H17.2969C17.4961 9.70312 17.6631 9.63574 17.7979 9.50098C17.9326 9.36621 18 9.19922 18 9C18 8.80078 17.9326 8.63379 17.7979 8.49902C17.6631 8.36426 17.4961 8.29688 17.2969 8.29688H2.4082L4.86914 5.83594C5.00977 5.70703 5.08008 5.5459 5.08008 5.35254C5.08008 5.15918 5.00977 4.99219 4.86914 4.85156C4.74023 4.71094 4.5791 4.64062 4.38574 4.64062C4.19238 4.64062 4.02539 4.71094 3.88477 4.85156L0.210938 8.50781C0.0703125 8.63672 0 8.80078 0 9C0 9.19922 0.0703125 9.36328 0.210938 9.49219Z" fill="#211F38" fill-opacity="0.2"/>
</svg>
