<svg width="10" height="13" viewBox="0 0 10 13" fill="none" xmlns="http://www.w3.org/2000/svg">
<path d="M4.30078 12.2656C0.878906 7.34375 0.269531 6.82812 0.269531 5C0.269531 2.51562 2.26172 0.5 4.76953 0.5C7.25391 0.5 9.26953 2.51562 9.26953 5C9.26953 6.82812 8.63672 7.34375 5.21484 12.2656C5.00391 12.5938 4.51172 12.5938 4.30078 12.2656ZM4.76953 6.875C5.80078 6.875 6.64453 6.05469 6.64453 5C6.64453 3.96875 5.80078 3.125 4.76953 3.125C3.71484 3.125 2.89453 3.96875 2.89453 5C2.89453 6.05469 3.71484 6.875 4.76953 6.875Z" fill="#7166F5"/>
</svg>
