<svg width="13" height="9" viewBox="0 0 13 9" fill="none" xmlns="http://www.w3.org/2000/svg">
<path d="M12.2051 2.97656C12.2988 2.90625 12.4395 2.97656 12.4395 3.09375V7.875C12.4395 8.50781 11.9238 9 11.3145 9H1.56445C0.931641 9 0.439453 8.50781 0.439453 7.875V3.09375C0.439453 2.97656 0.556641 2.90625 0.650391 2.97656C1.18945 3.39844 1.86914 3.91406 4.25977 5.64844C4.75195 6 5.5957 6.77344 6.43945 6.77344C7.25977 6.77344 8.12695 6 8.5957 5.64844C10.9863 3.91406 11.666 3.39844 12.2051 2.97656ZM6.43945 6C5.87695 6.02344 5.10352 5.32031 4.70508 5.03906C1.58789 2.78906 1.35352 2.57812 0.650391 2.01562C0.509766 1.92188 0.439453 1.75781 0.439453 1.57031V1.125C0.439453 0.515625 0.931641 0 1.56445 0H11.3145C11.9238 0 12.4395 0.515625 12.4395 1.125V1.57031C12.4395 1.75781 12.3457 1.92188 12.2051 2.01562C11.502 2.57812 11.2676 2.78906 8.15039 5.03906C7.75195 5.32031 6.97852 6.02344 6.43945 6Z" fill="#7166F5"/>
</svg>
