<svg width="23" height="18" viewBox="0 0 23 18" fill="none" xmlns="http://www.w3.org/2000/svg">
<path d="M16.4375 6.7998C16.4375 10.1025 12.9492 12.7373 8.71875 12.7373C7.19727 12.7373 5.75 12.4033 4.5625 11.8096C3.74609 12.292 2.63281 12.7373 1.29688 12.7373C1.14844 12.7373 1.07422 12.7002 1 12.5889C0.962891 12.4775 1 12.3291 1.07422 12.2549C1.07422 12.2549 1.89062 11.3643 2.41016 10.2139C1.51953 9.24902 1 8.09863 1 6.7998C1 3.53418 4.45117 0.862305 8.71875 0.862305C12.9492 0.862305 16.4375 3.53418 16.4375 6.7998ZM20.9648 14.9639C21.4473 16.1143 22.2637 17.0049 22.2637 17.0049C22.375 17.0791 22.375 17.2275 22.3379 17.3389C22.3008 17.4502 22.1895 17.4873 22.0781 17.4873C20.7051 17.4873 19.5918 17.042 18.7754 16.5596C17.5879 17.1533 16.1777 17.4873 14.6562 17.4873C11.4277 17.4873 8.68164 16.0029 7.53125 13.8877C7.90234 13.9248 8.31055 13.9248 8.71875 13.9248C13.6172 13.9248 17.625 10.7334 17.625 6.7998C17.625 6.57715 17.5879 6.31738 17.5508 6.05762C20.3711 6.94824 22.375 9.10059 22.375 11.5498C22.375 12.8486 21.8184 13.999 20.9648 14.9639Z" fill="#7166F5"/>
</svg>
