<svg width="10" height="12" viewBox="0 0 10 12" fill="none" xmlns="http://www.w3.org/2000/svg">
<path d="M5.30078 0.164062C7.50391 0.164062 9.51953 1.6875 9.51953 4.00781C9.51953 6.1875 8.39453 8.625 5.91016 8.625C5.30078 8.625 4.57422 8.32031 4.26953 7.78125C3.75391 9.89062 3.77734 10.2188 2.60547 11.8359C2.48828 11.8828 2.51172 11.8828 2.44141 11.7891C2.39453 11.3438 2.34766 10.9219 2.34766 10.4766C2.34766 9.04688 3.00391 6.96094 3.33203 5.57812C3.14453 5.20312 3.09766 4.78125 3.09766 4.38281C3.09766 2.50781 5.30078 2.22656 5.30078 3.77344C5.30078 4.6875 4.66797 5.55469 4.66797 6.44531C4.66797 7.03125 5.18359 7.45312 5.76953 7.45312C7.38672 7.45312 7.87891 5.13281 7.87891 3.89062C7.87891 2.22656 6.70703 1.3125 5.08984 1.3125C3.23828 1.3125 1.80859 2.64844 1.80859 4.52344C1.80859 5.4375 2.37109 5.90625 2.37109 6.11719C2.37109 6.30469 2.23047 6.9375 1.99609 6.9375C1.43359 6.9375 0.519531 6 0.519531 4.35938C0.519531 1.75781 2.88672 0.164062 5.30078 0.164062Z" fill="white"/>
</svg>
