<svg width="44" height="45" viewBox="0 0 44 45" fill="none" xmlns="http://www.w3.org/2000/svg">
<path d="M32.8281 17.6008V8.06177C32.8281 7.86125 32.7923 7.66789 32.7207 7.48169C32.6491 7.29549 32.5417 7.11646 32.3984 6.94458C32.2552 6.80135 32.0833 6.69393 31.8828 6.62231C31.6823 6.5507 31.4818 6.51489 31.2812 6.51489H29.6055V5.2688C29.6055 5.06828 29.5697 4.86776 29.498 4.66724C29.4264 4.46672 29.3047 4.29484 29.1328 4.15161C28.9896 4.00838 28.8249 3.8938 28.6387 3.80786C28.4525 3.72192 28.2591 3.67896 28.0586 3.67896H6.01562C5.95833 3.67896 5.91536 3.68612 5.88672 3.70044C5.85807 3.71476 5.8151 3.73625 5.75781 3.76489C5.72917 3.76489 5.70052 3.77922 5.67188 3.80786C5.64323 3.83651 5.61458 3.86515 5.58594 3.8938L1.50391 8.83521C1.50391 8.83521 1.50391 8.84237 1.50391 8.85669C1.50391 8.87101 1.48958 8.87817 1.46094 8.87817C1.46094 8.90682 1.45378 8.9283 1.43945 8.94263C1.42513 8.95695 1.41797 8.96411 1.41797 8.96411C1.41797 8.99276 1.41797 9.01424 1.41797 9.02856C1.41797 9.04289 1.41797 9.05005 1.41797 9.05005C1.41797 9.05005 1.41797 9.05721 1.41797 9.07153C1.41797 9.08586 1.41797 9.09302 1.41797 9.09302C1.41797 9.09302 1.41797 9.10018 1.41797 9.1145C1.41797 9.12883 1.40365 9.15031 1.375 9.17896V37.5383C1.40365 37.7389 1.45378 37.9322 1.52539 38.1184C1.59701 38.3046 1.70443 38.4836 1.84766 38.6555C1.99089 38.7987 2.16276 38.9062 2.36328 38.9778C2.5638 39.0494 2.76432 39.0852 2.96484 39.0852H4.64062V40.3313C4.64062 40.5318 4.67643 40.7323 4.74805 40.9329C4.81966 41.1334 4.92708 41.3053 5.07031 41.4485C5.24219 41.5917 5.42122 41.7063 5.60742 41.7922C5.79362 41.8782 5.98698 41.9211 6.1875 41.9211H31.2812C31.4818 41.9211 31.6823 41.8782 31.8828 41.7922C32.0833 41.7063 32.2552 41.5917 32.3984 41.4485C32.5417 41.3053 32.6491 41.1334 32.7207 40.9329C32.7923 40.7323 32.8281 40.5318 32.8281 40.3313V40.2883C34.2604 39.8873 35.5781 39.2714 36.7812 38.4407C37.9844 37.6099 39.0156 36.6073 39.875 35.4329C40.763 34.2584 41.4362 32.9693 41.8945 31.5657C42.3529 30.162 42.5964 28.7297 42.625 27.2688V20.3938L32.8281 17.6008ZM31.2812 7.58911C31.3385 7.58911 31.3958 7.60344 31.4531 7.63208C31.5104 7.66072 31.5677 7.68937 31.625 7.71802C31.6536 7.77531 31.6823 7.8326 31.7109 7.88989C31.7396 7.94719 31.7539 8.00447 31.7539 8.06177V17.6438L29.6055 18.2883V7.58911H31.2812ZM5.58594 5.61255V8.14771C5.58594 8.205 5.57161 8.26229 5.54297 8.31958C5.51432 8.37687 5.48568 8.43416 5.45703 8.49146C5.39974 8.5201 5.34245 8.54875 5.28516 8.57739C5.22786 8.60604 5.17057 8.62036 5.11328 8.62036H3.09375L5.58594 5.61255ZM2.49219 37.5383V9.69458H5.11328C5.3138 9.69458 5.51432 9.65877 5.71484 9.58716C5.91536 9.51554 6.08724 9.40812 6.23047 9.26489C6.3737 9.12166 6.48112 8.94979 6.55273 8.74927C6.62435 8.54875 6.66016 8.34822 6.66016 8.14771V4.79614H28.0586C28.1159 4.79614 28.1732 4.81047 28.2305 4.83911C28.2878 4.86776 28.3307 4.8964 28.3594 4.92505C28.4167 4.98234 28.4596 5.03963 28.4883 5.09692C28.5169 5.15422 28.5312 5.21151 28.5312 5.2688V18.5891L22.2148 20.3938V21.5969H5.80078C5.71484 21.5969 5.63607 21.6112 5.56445 21.6399C5.49284 21.6685 5.44271 21.7115 5.41406 21.7688C5.35677 21.8261 5.3138 21.8834 5.28516 21.9407C5.25651 21.998 5.24219 22.0696 5.24219 22.1555C5.24219 22.2128 5.25651 22.2773 5.28516 22.3489C5.3138 22.4205 5.35677 22.4849 5.41406 22.5422C5.44271 22.5995 5.49284 22.6425 5.56445 22.6711C5.63607 22.6998 5.71484 22.7141 5.80078 22.7141H22.2148V25.4641H5.80078C5.71484 25.4641 5.63607 25.4784 5.56445 25.5071C5.49284 25.5357 5.44271 25.5787 5.41406 25.636C5.35677 25.6646 5.3138 25.7148 5.28516 25.7864C5.25651 25.858 5.24219 25.9368 5.24219 26.0227C5.24219 26.08 5.25651 26.1445 5.28516 26.2161C5.3138 26.2877 5.35677 26.3378 5.41406 26.3665C5.44271 26.4237 5.49284 26.4667 5.56445 26.4954C5.63607 26.524 5.71484 26.5383 5.80078 26.5383H22.2148V27.2688C22.2148 27.6125 22.2292 27.9563 22.2578 28.3C22.2865 28.6438 22.3151 28.9732 22.3438 29.2883H5.80078C5.71484 29.2883 5.63607 29.3027 5.56445 29.3313C5.49284 29.3599 5.44271 29.4029 5.41406 29.4602C5.35677 29.5175 5.3138 29.582 5.28516 29.6536C5.25651 29.7252 5.24219 29.7896 5.24219 29.8469C5.24219 29.9329 5.25651 30.0045 5.28516 30.0618C5.3138 30.1191 5.35677 30.1764 5.41406 30.2336C5.44271 30.2909 5.49284 30.3339 5.56445 30.3625C5.63607 30.3912 5.71484 30.4055 5.80078 30.4055H22.6016C22.7161 30.8639 22.8522 31.3293 23.0098 31.802C23.1673 32.2747 23.3464 32.7258 23.5469 33.1555H5.80078C5.71484 33.1555 5.63607 33.1698 5.56445 33.1985C5.49284 33.2271 5.44271 33.2701 5.41406 33.3274C5.35677 33.3847 5.3138 33.442 5.28516 33.4993C5.25651 33.5566 5.24219 33.6282 5.24219 33.7141C5.24219 33.7714 5.25651 33.8359 5.28516 33.9075C5.3138 33.9791 5.35677 34.0435 5.41406 34.1008C5.44271 34.1295 5.49284 34.1581 5.56445 34.1868C5.63607 34.2154 5.71484 34.2297 5.80078 34.2297H24.1484C24.5781 34.9745 25.0723 35.662 25.6309 36.2922C26.1895 36.9224 26.7982 37.4954 27.457 38.011H2.96484C2.90755 38.011 2.85026 37.9967 2.79297 37.968C2.73568 37.9394 2.67839 37.9107 2.62109 37.8821C2.59245 37.8248 2.5638 37.7675 2.53516 37.7102C2.50651 37.6529 2.49219 37.5956 2.49219 37.5383ZM31.2812 40.804H6.1875C6.13021 40.804 6.07292 40.7896 6.01562 40.761C5.95833 40.7323 5.91536 40.7037 5.88672 40.675C5.82943 40.6178 5.78646 40.5605 5.75781 40.5032C5.72917 40.4459 5.71484 40.3886 5.71484 40.3313V39.0852H28.0586C28.1732 39.0852 28.2949 39.0709 28.4238 39.0422C28.5527 39.0136 28.6745 38.9706 28.7891 38.9133C29.2474 39.1711 29.7272 39.4146 30.2285 39.6438C30.7298 39.873 31.2383 40.0592 31.7539 40.2024V40.3313C31.7539 40.3886 31.7396 40.4459 31.7109 40.5032C31.6823 40.5605 31.6536 40.6178 31.625 40.675C31.5677 40.7037 31.5104 40.7323 31.4531 40.761C31.3958 40.7896 31.3385 40.804 31.2812 40.804ZM41.5078 27.2688C41.5078 28.6724 41.2786 30.0188 40.8203 31.3079C40.3906 32.5969 39.7747 33.7642 38.9727 34.8098C38.1706 35.8554 37.2109 36.7649 36.0938 37.5383C34.9766 38.3118 33.7448 38.8847 32.3984 39.2571C30.8516 38.8274 29.4336 38.1184 28.1445 37.1301C26.8555 36.1418 25.7956 34.9459 24.9648 33.5422C24.9648 33.4849 24.9577 33.442 24.9434 33.4133C24.929 33.3847 24.9076 33.356 24.8789 33.3274C24.5638 32.7831 24.2988 32.2174 24.084 31.6301C23.8691 31.0429 23.6901 30.4342 23.5469 29.804C23.5469 29.7753 23.5469 29.7538 23.5469 29.7395C23.5469 29.7252 23.5469 29.7037 23.5469 29.675C23.4609 29.274 23.3965 28.873 23.3535 28.4719C23.3105 28.0709 23.2891 27.6698 23.2891 27.2688V21.2102L32.3984 18.5891L41.5078 21.2102V27.2688ZM10.6992 14.4641C10.6992 14.4355 10.7064 14.3997 10.7207 14.3567C10.735 14.3137 10.7422 14.2779 10.7422 14.2493C10.7708 14.2206 10.7923 14.192 10.8066 14.1633C10.821 14.1347 10.8424 14.106 10.8711 14.0774C10.8997 14.0487 10.9284 14.0201 10.957 13.9915C10.9857 13.9628 11.0143 13.9485 11.043 13.9485C11.0716 13.9198 11.1074 13.9055 11.1504 13.9055C11.1934 13.9055 11.2292 13.9055 11.2578 13.9055H25.2227C25.3086 13.9055 25.3802 13.9198 25.4375 13.9485C25.4948 13.9771 25.5521 14.0201 25.6094 14.0774C25.6667 14.1347 25.7096 14.192 25.7383 14.2493C25.7669 14.3066 25.7812 14.3782 25.7812 14.4641C25.7812 14.5214 25.7669 14.5859 25.7383 14.6575C25.7096 14.7291 25.6667 14.7935 25.6094 14.8508C25.5521 14.9081 25.4948 14.9511 25.4375 14.9797C25.3802 15.0084 25.3086 15.0227 25.2227 15.0227H11.2578C11.1719 15.0227 11.1003 15.0084 11.043 14.9797C10.9857 14.9511 10.9284 14.9081 10.8711 14.8508C10.8138 14.7935 10.7708 14.7291 10.7422 14.6575C10.7135 14.5859 10.6992 14.5214 10.6992 14.4641ZM5.24219 18.2883C5.24219 18.2597 5.24219 18.231 5.24219 18.2024C5.24219 18.1737 5.25651 18.1308 5.28516 18.0735C5.28516 18.0448 5.29948 18.0162 5.32812 17.9875C5.35677 17.9589 5.38542 17.9303 5.41406 17.9016C5.41406 17.873 5.43555 17.8515 5.47852 17.8372C5.52148 17.8228 5.55729 17.8157 5.58594 17.8157C5.61458 17.787 5.64323 17.7727 5.67188 17.7727C5.70052 17.7727 5.74349 17.7727 5.80078 17.7727H25.2227C25.3086 17.7727 25.3802 17.787 25.4375 17.8157C25.4948 17.8443 25.5521 17.873 25.6094 17.9016C25.6667 17.9589 25.7096 18.0234 25.7383 18.095C25.7669 18.1666 25.7812 18.231 25.7812 18.2883C25.7812 18.3743 25.7669 18.453 25.7383 18.5247C25.7096 18.5963 25.6667 18.6464 25.6094 18.675C25.5521 18.7323 25.4948 18.7753 25.4375 18.804C25.3802 18.8326 25.3086 18.8469 25.2227 18.8469H5.80078C5.74349 18.8469 5.70052 18.8469 5.67188 18.8469C5.64323 18.8469 5.61458 18.8326 5.58594 18.804C5.55729 18.804 5.52148 18.7896 5.47852 18.761C5.43555 18.7323 5.41406 18.7037 5.41406 18.675C5.38542 18.6464 5.35677 18.6178 5.32812 18.5891C5.29948 18.5605 5.28516 18.5318 5.28516 18.5032C5.25651 18.4745 5.24219 18.4459 5.24219 18.4172C5.24219 18.3886 5.24219 18.3456 5.24219 18.2883ZM26.5977 28.386C26.5977 28.9589 26.6836 29.5175 26.8555 30.0618C27.0273 30.606 27.2708 31.1217 27.5859 31.6086C27.901 32.0956 28.2806 32.5181 28.7246 32.8762C29.1686 33.2343 29.6628 33.5279 30.207 33.7571C30.7227 33.9576 31.2669 34.0865 31.8398 34.1438C32.4128 34.2011 32.9857 34.1724 33.5586 34.0579C34.1029 33.9433 34.6257 33.7499 35.127 33.4778C35.6283 33.2056 36.0938 32.8691 36.5234 32.468C36.9245 32.067 37.2611 31.6158 37.5332 31.1145C37.8053 30.6132 37.9987 30.0761 38.1133 29.5032C38.2279 28.9589 38.2565 28.4003 38.1992 27.8274C38.1419 27.2545 37.9987 26.6959 37.7695 26.1516C37.5404 25.636 37.2467 25.1562 36.8887 24.7122C36.5306 24.2681 36.1081 23.8886 35.6211 23.5735C35.1628 23.2297 34.6543 22.9791 34.0957 22.8215C33.5371 22.664 32.9714 22.5852 32.3984 22.5852C31.625 22.5852 30.8874 22.7284 30.1855 23.0149C29.4837 23.3014 28.8607 23.7167 28.3164 24.261C27.7721 24.8053 27.3496 25.4355 27.0488 26.1516C26.748 26.8678 26.5977 27.6125 26.5977 28.386ZM32.3984 23.6594C32.8568 23.6594 33.3151 23.731 33.7734 23.8743C34.2318 24.0175 34.6471 24.218 35.0195 24.4758C35.4206 24.7336 35.7643 25.0416 36.0508 25.3997C36.3372 25.7577 36.5664 26.1516 36.7383 26.5813C36.9388 27.011 37.0605 27.455 37.1035 27.9133C37.1465 28.3717 37.125 28.83 37.0391 29.2883C36.9245 29.7467 36.7598 30.1835 36.5449 30.5989C36.3301 31.0142 36.0651 31.3795 35.75 31.6946C35.4062 32.0383 35.0267 32.3176 34.6113 32.5325C34.196 32.7473 33.7734 32.8977 33.3438 32.9836C32.8854 33.0696 32.4199 33.0911 31.9473 33.0481C31.4746 33.0051 31.0234 32.8977 30.5938 32.7258C30.1641 32.554 29.7702 32.3176 29.4121 32.0168C29.054 31.7161 28.7461 31.3795 28.4883 31.0071C28.2305 30.606 28.0371 30.1835 27.9082 29.7395C27.7793 29.2955 27.7148 28.8443 27.7148 28.386C27.7148 27.7558 27.8294 27.1542 28.0586 26.5813C28.2878 26.0084 28.6315 25.4928 29.0898 25.0344C29.5195 24.6047 30.0208 24.2681 30.5938 24.0247C31.1667 23.7812 31.7682 23.6594 32.3984 23.6594ZM29.7773 28.1711C29.806 28.1425 29.8275 28.121 29.8418 28.1067C29.8561 28.0924 29.8776 28.0709 29.9062 28.0422C29.9349 28.0136 29.9707 27.9921 30.0137 27.9778C30.0566 27.9635 30.0924 27.9563 30.1211 27.9563C30.1497 27.9563 30.1855 27.9563 30.2285 27.9563C30.2715 27.9563 30.3073 27.9563 30.3359 27.9563C30.3646 27.9849 30.4004 28.0064 30.4434 28.0208C30.4863 28.0351 30.5221 28.0422 30.5508 28.0422L31.9688 29.0735L34.2031 26.5813C34.2318 26.524 34.2819 26.481 34.3535 26.4524C34.4251 26.4237 34.4896 26.4094 34.5469 26.4094C34.6328 26.3808 34.7116 26.3808 34.7832 26.4094C34.8548 26.4381 34.9049 26.481 34.9336 26.5383C34.9909 26.567 35.041 26.6171 35.084 26.6887C35.127 26.7603 35.1484 26.8248 35.1484 26.8821C35.1484 26.968 35.1341 27.0468 35.1055 27.1184C35.0768 27.19 35.0482 27.2545 35.0195 27.3118L32.4844 30.1907C32.4271 30.248 32.3698 30.2909 32.3125 30.3196C32.2552 30.3482 32.1979 30.3625 32.1406 30.3625C32.0547 30.3625 31.9831 30.3554 31.9258 30.3411C31.8685 30.3267 31.8112 30.3053 31.7539 30.2766L29.9062 28.9446C29.8776 28.9446 29.849 28.9303 29.8203 28.9016C29.7917 28.873 29.763 28.8443 29.7344 28.8157C29.7344 28.787 29.7272 28.7512 29.7129 28.7083C29.6986 28.6653 29.6914 28.6295 29.6914 28.6008C29.6628 28.5722 29.6484 28.5364 29.6484 28.4934C29.6484 28.4504 29.6628 28.4146 29.6914 28.386C29.6914 28.3573 29.6986 28.3215 29.7129 28.2786C29.7272 28.2356 29.7487 28.1998 29.7773 28.1711Z" fill="#7166F5"/>
</svg>
