<svg width="138" height="22" viewBox="0 0 138 22" fill="none" xmlns="http://www.w3.org/2000/svg">
<path d="M10.623 1.16309C11.1152 0.178711 12.5098 0.219727 12.9609 1.16309L15.668 6.61816L21.6562 7.47949C22.7227 7.64355 23.1328 8.95605 22.3535 9.73535L18.0469 13.96L19.0723 19.9072C19.2363 20.9736 18.0879 21.7939 17.1445 21.3018L11.8125 18.4717L6.43945 21.3018C5.49609 21.7939 4.34766 20.9736 4.51172 19.9072L5.53711 13.96L1.23047 9.73535C0.451172 8.95605 0.861328 7.64355 1.92773 7.47949L7.95703 6.61816L10.623 1.16309ZM39.248 1.16309C39.7402 0.178711 41.1348 0.219727 41.5859 1.16309L44.293 6.61816L50.2812 7.47949C51.3477 7.64355 51.7578 8.95605 50.9785 9.73535L46.6719 13.96L47.6973 19.9072C47.8613 20.9736 46.7129 21.7939 45.7695 21.3018L40.4375 18.4717L35.0645 21.3018C34.1211 21.7939 32.9727 20.9736 33.1367 19.9072L34.1621 13.96L29.8555 9.73535C29.0762 8.95605 29.4863 7.64355 30.5527 7.47949L36.582 6.61816L39.248 1.16309ZM67.873 1.16309C68.3652 0.178711 69.7598 0.219727 70.2109 1.16309L72.918 6.61816L78.9062 7.47949C79.9727 7.64355 80.3828 8.95605 79.6035 9.73535L75.2969 13.96L76.3223 19.9072C76.4863 20.9736 75.3379 21.7939 74.3945 21.3018L69.0625 18.4717L63.6895 21.3018C62.7461 21.7939 61.5977 20.9736 61.7617 19.9072L62.7871 13.96L58.4805 9.73535C57.7012 8.95605 58.1113 7.64355 59.1777 7.47949L65.207 6.61816L67.873 1.16309ZM96.498 1.16309C96.9902 0.178711 98.3848 0.219727 98.8359 1.16309L101.543 6.61816L107.531 7.47949C108.598 7.64355 109.008 8.95605 108.229 9.73535L103.922 13.96L104.947 19.9072C105.111 20.9736 103.963 21.7939 103.02 21.3018L97.6875 18.4717L92.3145 21.3018C91.3711 21.7939 90.2227 20.9736 90.3867 19.9072L91.4121 13.96L87.1055 9.73535C86.3262 8.95605 86.7363 7.64355 87.8027 7.47949L93.832 6.61816L96.498 1.16309ZM125.123 1.16309C125.615 0.178711 127.01 0.219727 127.461 1.16309L130.168 6.61816L136.156 7.47949C137.223 7.64355 137.633 8.95605 136.854 9.73535L132.547 13.96L133.572 19.9072C133.736 20.9736 132.588 21.7939 131.645 21.3018L126.312 18.4717L120.939 21.3018C119.996 21.7939 118.848 20.9736 119.012 19.9072L120.037 13.96L115.73 9.73535C114.951 8.95605 115.361 7.64355 116.428 7.47949L122.457 6.61816L125.123 1.16309Z" fill="#7166F5"/>
</svg>
