<svg width="18" height="18" viewBox="0 0 18 18" fill="none" xmlns="http://www.w3.org/2000/svg">
<path d="M17.7891 8.50781L14.1152 4.85156C13.9746 4.71094 13.8076 4.64062 13.6143 4.64062C13.4209 4.64062 13.2598 4.71094 13.1309 4.85156C12.9902 4.99219 12.9199 5.15918 12.9199 5.35254C12.9199 5.5459 12.9902 5.70703 13.1309 5.83594L15.5918 8.29688H0.703125C0.503906 8.29688 0.336914 8.36426 0.202148 8.49902C0.0673828 8.63379 0 8.80078 0 9C0 9.19922 0.0673828 9.36621 0.202148 9.50098C0.336914 9.63574 0.503906 9.70312 0.703125 9.70312H15.5918L13.1309 12.1641C12.9902 12.293 12.9199 12.4541 12.9199 12.6475C12.9199 12.8408 12.9902 13.0078 13.1309 13.1484C13.2598 13.2891 13.4209 13.3594 13.6143 13.3594C13.8076 13.3594 13.9746 13.2891 14.1152 13.1484L17.7891 9.49219C17.9297 9.36328 18 9.19922 18 9C18 8.80078 17.9297 8.63672 17.7891 8.50781Z" fill="#211F38" fill-opacity="0.2"/>
</svg>
