<svg width="21" height="26" viewBox="0 0 21 26" fill="none" xmlns="http://www.w3.org/2000/svg">
<g clip-path="url(#clip0_804_2874)">
<path d="M20.7441 19.9844L15.8809 15.1211C16.5319 14.3659 17.043 13.513 17.4141 12.5625C17.7852 11.612 17.9707 10.6029 17.9707 9.53516C17.9707 8.35026 17.7493 7.24349 17.3066 6.21484C16.8639 5.17318 16.2552 4.26823 15.4805 3.5C14.7057 2.73177 13.7975 2.11979 12.7559 1.66406C11.7272 1.22135 10.627 1 9.45508 1C8.27018 1 7.16341 1.22135 6.13477 1.66406C5.0931 2.11979 4.18815 2.73177 3.41992 3.5C2.65169 4.26823 2.03971 5.17318 1.58398 6.21484C1.14128 7.24349 0.919922 8.35026 0.919922 9.53516C0.919922 10.707 1.14128 11.8073 1.58398 12.8359C2.03971 13.8776 2.65169 14.7826 3.41992 15.5508C4.18815 16.319 5.0931 16.931 6.13477 17.3867C7.16341 17.8294 8.27018 18.0508 9.45508 18.0508C10.5228 18.0508 11.5319 17.8652 12.4824 17.4941C13.4329 17.123 14.2858 16.612 15.041 15.9609L19.9043 20.8242C19.9564 20.8763 20.0215 20.9186 20.0996 20.9512C20.1777 20.9837 20.2493 21 20.3145 21C20.3926 21 20.4707 20.987 20.5488 20.9609C20.627 20.9349 20.6921 20.8893 20.7441 20.8242C20.8613 20.707 20.9199 20.5671 20.9199 20.4043C20.9199 20.2415 20.8613 20.1016 20.7441 19.9844ZM2.11133 9.53516C2.11133 8.51953 2.30664 7.56901 2.69727 6.68359C3.07487 5.78516 3.5957 5.00391 4.25977 4.33984C4.92383 3.67578 5.70508 3.15495 6.60352 2.77734C7.48893 2.38672 8.43945 2.19141 9.45508 2.19141C10.4577 2.19141 11.4082 2.38672 12.3066 2.77734C13.1921 3.15495 13.9668 3.67578 14.6309 4.33984C15.2949 5.00391 15.8158 5.78516 16.1934 6.68359C16.584 7.56901 16.7793 8.51953 16.7793 9.53516C16.7793 10.5378 16.584 11.4883 16.1934 12.3867C15.8158 13.2721 15.2949 14.0469 14.6309 14.7109C13.9668 15.375 13.1921 15.9023 12.3066 16.293C11.4082 16.6706 10.4577 16.8594 9.45508 16.8594C8.43945 16.8594 7.48893 16.6706 6.60352 16.293C5.70508 15.9023 4.92383 15.375 4.25977 14.7109C3.5957 14.0469 3.07487 13.2721 2.69727 12.3867C2.30664 11.4883 2.11133 10.5378 2.11133 9.53516Z" fill="#D0CCFF"/>
</g>
<defs>
<clipPath id="clip0_804_2874">
<rect width="20" height="20" fill="white" transform="matrix(1 0 0 -1 0.919922 21)"/>
</clipPath>
</defs>
</svg>
