<svg width="14" height="16" viewBox="0 0 14 16" fill="none" xmlns="http://www.w3.org/2000/svg">
<path d="M10.8184 10.25C12.3711 10.25 13.6309 11.5098 13.6309 13.0625C13.6309 14.6445 12.3711 15.875 10.8184 15.875C9.23633 15.875 8.00586 14.6445 8.00586 13.0625V13.0918C8.00586 12.8574 8.00586 12.6523 8.06445 12.4766L5.04688 10.6016C4.57812 10.9824 3.96289 11.1875 3.31836 11.1875C1.73633 11.1875 0.505859 9.95703 0.505859 8.375C0.505859 6.82227 1.73633 5.5625 3.31836 5.5625C3.96289 5.5625 4.57812 5.79688 5.04688 6.17773L8.06445 4.30273C8.00586 4.12695 8.00586 3.92188 8.00586 3.6875C8.00586 2.13477 9.23633 0.875 10.8184 0.875C12.3711 0.875 13.6309 2.13477 13.6309 3.6875C13.6309 5.26953 12.3711 6.5 10.8184 6.5C10.1445 6.5 9.5293 6.29492 9.06055 5.91406L6.04297 7.78906C6.10156 7.96484 6.10156 8.16992 6.10156 8.375C6.10156 8.60938 6.10156 8.81445 6.04297 8.99023L9.06055 10.8652C9.5293 10.4844 10.1445 10.25 10.8184 10.25Z" fill="#211F38"/>
</svg>
