<svg width="44" height="45" viewBox="0 0 44 45" fill="none" xmlns="http://www.w3.org/2000/svg">
<path d="M41.0352 38.5696H36.7383C37.0534 38.2545 37.2969 37.9107 37.4688 37.5383C37.6406 37.1659 37.7552 36.7792 37.8125 36.3782H37.9844C38.013 36.3782 38.0488 36.371 38.0918 36.3567C38.1348 36.3424 38.1849 36.3209 38.2422 36.2922C39.3021 36.0344 40.1543 35.44 40.7988 34.509C41.4434 33.578 41.7227 32.5683 41.6367 31.4797L41.5508 30.8782C41.5508 30.7922 41.5365 30.7206 41.5078 30.6633C41.4792 30.606 41.4362 30.5487 41.3789 30.4915C40.3763 29.5175 39.0801 28.787 37.4902 28.3C35.9004 27.8131 34.0026 27.5409 31.7969 27.4836C31.3099 27.4836 30.7728 27.3333 30.1855 27.0325C29.5983 26.7317 28.9753 26.3665 28.3164 25.9368C27.2565 25.3066 26.0534 24.662 24.707 24.0032C23.3607 23.3443 21.7422 22.9433 19.8516 22.8C19.5651 22.7714 19.2715 22.7571 18.9707 22.7571C18.6699 22.7571 18.3763 22.7571 18.0898 22.7571C16.6576 22.7284 15.2539 22.8287 13.8789 23.0579C12.5326 23.287 11.2507 23.6093 10.0332 24.0247C8.81576 24.44 7.69141 24.9485 6.66016 25.55C5.62891 26.1803 4.74089 26.8678 3.99609 27.6125C3.99609 27.6125 3.98893 27.6125 3.97461 27.6125C3.96029 27.6125 3.9388 27.6269 3.91016 27.6555C3.76693 27.8274 3.6237 27.9849 3.48047 28.1282C3.33724 28.2714 3.20833 28.4433 3.09375 28.6438C3.0651 28.7011 3.03646 28.7584 3.00781 28.8157C2.97917 28.873 2.96484 28.9303 2.96484 28.9875V31.136C2.79297 31.136 2.64974 31.1861 2.53516 31.2864C2.42057 31.3866 2.36328 31.537 2.36328 31.7375V33.4563C2.36328 34.2584 2.64974 34.9459 3.22266 35.5188C3.79557 36.0917 4.48307 36.3782 5.28516 36.3782H5.62891C5.71484 36.7792 5.85091 37.1659 6.03711 37.5383C6.22331 37.9107 6.44531 38.2545 6.70312 38.5696H2.96484C2.79297 38.5696 2.64974 38.6197 2.53516 38.72C2.42057 38.8202 2.36328 38.9706 2.36328 39.1711C2.36328 39.343 2.42057 39.4791 2.53516 39.5793C2.64974 39.6796 2.79297 39.7297 2.96484 39.7297H41.0352C41.207 39.7297 41.3503 39.6796 41.4648 39.5793C41.5794 39.4791 41.6367 39.343 41.6367 39.1711C41.6367 38.9706 41.5794 38.8202 41.4648 38.72C41.3503 38.6197 41.207 38.5696 41.0352 38.5696ZM13.4922 36.3782H29.9492C30.0065 36.7792 30.1354 37.1659 30.3359 37.5383C30.5365 37.9107 30.7656 38.2545 31.0234 38.5696H12.418C12.7331 38.2545 12.9766 37.9107 13.1484 37.5383C13.3203 37.1659 13.4349 36.7792 13.4922 36.3782ZM31.1094 35.7766C31.1094 35.0032 31.3815 34.3443 31.9258 33.8C32.4701 33.2558 33.1289 32.9836 33.9023 32.9836C34.6758 32.9836 35.3346 33.2558 35.8789 33.8C36.4232 34.3443 36.6953 35.0032 36.6953 35.7766C36.6953 36.55 36.4232 37.2089 35.8789 37.7532C35.3346 38.2974 34.6758 38.5696 33.9023 38.5696C33.1289 38.5696 32.4701 38.2974 31.9258 37.7532C31.3815 37.2089 31.1094 36.55 31.1094 35.7766ZM27.6289 26.968C27.9154 27.1399 28.1875 27.2974 28.4453 27.4407C28.7031 27.5839 28.9466 27.7271 29.1758 27.8704C27.4284 28.0995 25.6738 28.2714 23.9121 28.386C22.1504 28.5006 20.3815 28.5579 18.6055 28.5579V23.8743C18.7773 23.8743 18.9564 23.8814 19.1426 23.8958C19.3288 23.9101 19.5078 23.9172 19.6797 23.9172C21.4271 24.0605 22.9453 24.4472 24.2344 25.0774C25.5234 25.7076 26.6549 26.3378 27.6289 26.968ZM17.4883 23.8743V28.5579C15.5117 28.5292 13.5423 28.4433 11.5801 28.3C9.61784 28.1568 7.63411 27.942 5.62891 27.6555C7.03255 26.5097 8.77279 25.6073 10.8496 24.9485C12.9264 24.2896 15.1393 23.9316 17.4883 23.8743ZM3.56641 33.4563V32.2961H3.60938C3.8099 32.2961 3.96029 32.246 4.06055 32.1458C4.16081 32.0455 4.21094 31.9094 4.21094 31.7375V29.1594C4.26823 29.1021 4.32552 29.0305 4.38281 28.9446C4.4401 28.8586 4.51172 28.787 4.59766 28.7297C6.83203 29.1021 9.08073 29.3671 11.3438 29.5247C13.6068 29.6822 15.8555 29.7753 18.0898 29.804H18.3047C20.5964 29.804 22.8809 29.718 25.1582 29.5461C27.4355 29.3743 29.6914 29.1021 31.9258 28.7297C33.9023 28.787 35.5924 29.0305 36.9961 29.4602C38.3997 29.8899 39.5599 30.4771 40.4766 31.2219V31.6086C40.5339 32.4394 40.3333 33.1985 39.875 33.886C39.4167 34.5735 38.7865 35.0032 37.9844 35.175H37.8555C37.7122 34.2297 37.2682 33.4277 36.5234 32.7688C35.7786 32.1099 34.9193 31.7805 33.9453 31.7805C32.9714 31.7805 32.112 32.1099 31.3672 32.7688C30.6224 33.4277 30.1784 34.2297 30.0352 35.175H13.4922C13.349 34.2297 12.9049 33.4277 12.1602 32.7688C11.4154 32.1099 10.556 31.7805 9.58203 31.7805C8.60807 31.7805 7.7487 32.1099 7.00391 32.7688C6.25911 33.4277 5.80078 34.2297 5.62891 35.175H5.28516C4.82682 35.175 4.42578 35.0032 4.08203 34.6594C3.73828 34.3157 3.56641 33.9146 3.56641 33.4563ZM6.78906 35.7766C6.78906 35.0032 7.0612 34.3443 7.60547 33.8C8.14974 33.2558 8.80859 32.9836 9.58203 32.9836C10.3555 32.9836 11.0143 33.2558 11.5586 33.8C12.1029 34.3443 12.375 35.0032 12.375 35.7766C12.375 36.55 12.1029 37.2089 11.5586 37.7532C11.0143 38.2974 10.3555 38.5696 9.58203 38.5696C8.80859 38.5696 8.14974 38.2974 7.60547 37.7532C7.0612 37.2089 6.78906 36.55 6.78906 35.7766ZM31.4961 19.8352C32.0977 20.2362 32.6491 20.6588 33.1504 21.1028C33.6517 21.5468 34.0599 22.1269 34.375 22.843C34.4323 22.9862 34.5039 23.0865 34.5898 23.1438C34.6758 23.2011 34.776 23.2297 34.8906 23.2297C35.0052 23.2297 35.1198 23.2011 35.2344 23.1438C35.349 23.0865 35.4206 22.9862 35.4492 22.843C35.7357 22.1842 36.1367 21.6256 36.6523 21.1672C37.168 20.7089 37.7122 20.2649 38.2852 19.8352C39.0872 19.2623 39.832 18.6106 40.5195 17.8801C41.207 17.1497 41.5508 16.1112 41.5508 14.7649V9.22192C41.5508 9.05005 41.5007 8.91398 41.4004 8.81372C41.3001 8.71346 41.1497 8.66333 40.9492 8.66333C40.0612 8.66333 39.0085 8.31242 37.791 7.6106C36.5736 6.90877 35.7357 6.38599 35.2773 6.04224C35.1341 5.9563 35.0052 5.91333 34.8906 5.91333C34.776 5.91333 34.6615 5.9563 34.5469 6.04224C34.0312 6.38599 33.1647 6.90877 31.9473 7.6106C30.7298 8.31242 29.6914 8.66333 28.832 8.66333C28.6602 8.66333 28.5169 8.71346 28.4023 8.81372C28.2878 8.91398 28.2305 9.05005 28.2305 9.22192V14.7649C28.2305 16.1112 28.5742 17.1425 29.2617 17.8586C29.9492 18.5748 30.694 19.2336 31.4961 19.8352ZM29.4336 9.78052C30.4362 9.63729 31.4889 9.25057 32.5918 8.62036C33.6947 7.99015 34.4609 7.5175 34.8906 7.20239C35.3776 7.54614 36.1582 8.02596 37.2324 8.64185C38.3066 9.25773 39.3594 9.63729 40.3906 9.78052V14.7649C40.3906 15.8248 40.1042 16.6412 39.5312 17.2141C38.9583 17.787 38.3138 18.3456 37.5977 18.8899C37.1107 19.205 36.6237 19.5631 36.1367 19.9641C35.6497 20.3652 35.2201 20.8378 34.8477 21.3821C34.4466 20.8378 34.0098 20.3652 33.5371 19.9641C33.0645 19.5631 32.5846 19.205 32.0977 18.8899C31.3529 18.3456 30.7012 17.787 30.1426 17.2141C29.584 16.6412 29.3047 15.8248 29.3047 14.7649V9.78052H29.4336ZM33.4727 16.4407C33.5299 16.498 33.5944 16.5409 33.666 16.5696C33.7376 16.5982 33.8164 16.6125 33.9023 16.6125C33.9883 16.6125 34.0599 16.5982 34.1172 16.5696C34.1745 16.5409 34.2318 16.498 34.2891 16.4407L37.9414 12.8313C38.056 12.6881 38.1133 12.5377 38.1133 12.3801C38.1133 12.2226 38.056 12.0865 37.9414 11.9719C37.8268 11.8573 37.6908 11.8 37.5332 11.8C37.3757 11.8 37.2253 11.8573 37.082 11.9719L33.9023 15.1946L32.7422 14.0774C32.6276 13.9342 32.4915 13.8625 32.334 13.8625C32.1764 13.8625 32.0404 13.9342 31.9258 14.0774C31.8112 14.192 31.7539 14.328 31.7539 14.4856C31.7539 14.6431 31.8112 14.7792 31.9258 14.8938L33.4727 16.4407Z" fill="white"/>
</svg>
