<svg width="44" height="45" viewBox="0 0 44 45" fill="none" xmlns="http://www.w3.org/2000/svg">
<g clip-path="url(#clip0_804_2541)">
<path d="M17.7891 0.800049C16.5573 0.800049 15.5117 1.22974 14.6523 2.08911C13.793 2.94849 13.3633 3.97974 13.3633 5.18286C13.3633 6.41463 13.8001 7.46021 14.6738 8.31958C15.5475 9.17896 16.5859 9.60864 17.7891 9.60864C18.9922 9.60864 20.0234 9.17896 20.8828 8.31958C21.7422 7.46021 22.1719 6.41463 22.1719 5.18286C22.1719 3.97974 21.7422 2.94849 20.8828 2.08911C20.0234 1.22974 18.9922 0.800049 17.7891 0.800049ZM17.7891 8.31958C16.9297 8.31958 16.1921 8.01164 15.5762 7.39575C14.9603 6.77987 14.6523 6.04224 14.6523 5.18286C14.6523 4.32349 14.9603 3.59302 15.5762 2.99146C16.1921 2.38989 16.9297 2.08911 17.7891 2.08911C18.6484 2.08911 19.3789 2.38989 19.9805 2.99146C20.582 3.59302 20.8828 4.32349 20.8828 5.18286C20.8828 6.04224 20.582 6.77987 19.9805 7.39575C19.3789 8.01164 18.6484 8.31958 17.7891 8.31958ZM34.2891 27.6555C34.1745 27.5123 34.0241 27.4407 33.8379 27.4407C33.6517 27.4407 33.5013 27.5123 33.3867 27.6555L27.9727 33.1555L26.0391 31.179C25.9245 31.0357 25.7812 30.9641 25.6094 30.9641C25.4375 30.9641 25.2799 31.0214 25.1367 31.136C25.0221 31.2506 24.9577 31.401 24.9434 31.5872C24.929 31.7734 24.9935 31.9237 25.1367 32.0383L27.5 34.5305C27.6146 34.6737 27.765 34.7454 27.9512 34.7454C28.1374 34.7454 28.2878 34.6737 28.4023 34.5305L34.2891 28.5579C34.4323 28.4146 34.4967 28.2571 34.4824 28.0852C34.4681 27.9133 34.4036 27.7701 34.2891 27.6555ZM37.8555 31.9524C37.6836 31.9237 37.5189 31.9524 37.3613 32.0383C37.2038 32.1243 37.1107 32.2675 37.082 32.468C36.7096 34.3014 35.9147 35.9628 34.6973 37.4524C33.4798 38.942 31.9974 40.0448 30.25 40.761C30.0781 40.8183 29.9564 40.9257 29.8848 41.0833C29.8132 41.2408 29.806 41.4055 29.8633 41.5774C29.9492 41.7493 30.071 41.871 30.2285 41.9426C30.3861 42.0142 30.5508 42.0071 30.7227 41.9211C32.7279 41.1191 34.3965 39.8873 35.7285 38.2258C37.0605 36.5644 37.9414 34.7167 38.3711 32.6829C38.3997 32.511 38.3639 32.3534 38.2637 32.2102C38.1634 32.067 38.0273 31.981 37.8555 31.9524ZM36.7383 22.0266C35.8789 22.5136 35.041 22.7642 34.2246 22.7786C33.4082 22.7929 32.6419 22.5709 31.9258 22.1125C31.3242 21.7402 30.8659 21.3463 30.5508 20.9309C30.2357 20.5155 30.0638 20.2935 30.0352 20.2649C29.9206 20.093 29.7773 19.9569 29.6055 19.8567C29.4336 19.7564 29.2474 19.7063 29.0469 19.7063C28.4453 18.0162 27.7005 16.5839 26.8125 15.4094C25.9245 14.2349 25.0938 13.304 24.3203 12.6165C23.8333 12.1581 23.2891 11.8144 22.6875 11.5852C22.0859 11.356 21.4557 11.2415 20.7969 11.2415C20.4818 11.2415 19.472 11.2415 17.7676 11.2415C16.0632 11.2415 15.0534 11.2415 14.7383 11.2415C14.0508 11.2415 13.3848 11.3704 12.7402 11.6282C12.0957 11.886 11.5156 12.2441 11 12.7024C10.4844 13.1894 9.91146 13.8196 9.28125 14.593C8.6224 15.3951 8.00651 16.3261 7.43359 17.386C6.86068 18.4459 6.38802 19.6633 6.01562 21.0383C5.61458 22.4133 5.41406 23.9316 5.41406 25.593C5.41406 26.2805 5.65039 26.8821 6.12305 27.3977C6.5957 27.9133 7.17578 28.1711 7.86328 28.1711C8.57943 28.1998 9.19531 27.9635 9.71094 27.4622C10.2266 26.9609 10.4844 26.3521 10.4844 25.636C10.4844 24.4042 10.6562 23.2083 11 22.0481C11.3438 20.8879 11.8451 19.7922 12.5039 18.761V42.5657C12.5039 43.1672 12.7259 43.69 13.1699 44.134C13.6139 44.578 14.1367 44.8 14.7383 44.8H16.1992C16.5143 44.8 16.8079 44.7428 17.0801 44.6282C17.3522 44.5136 17.5885 44.3417 17.7891 44.1125C17.9896 44.3417 18.2259 44.5136 18.498 44.6282C18.7702 44.7428 19.0638 44.8 19.3789 44.8H20.7969C21.4271 44.8 21.957 44.578 22.3867 44.134C22.8164 43.69 23.0312 43.1672 23.0312 42.5657V39.1711C23.6328 39.7727 24.2845 40.3027 24.9863 40.761C25.6882 41.2193 26.4401 41.606 27.2422 41.9211C27.4141 42.0071 27.5788 42.0142 27.7363 41.9426C27.8939 41.871 28.0013 41.7493 28.0586 41.5774C28.1445 41.4055 28.1517 41.2408 28.0801 41.0833C28.0085 40.9257 27.8867 40.8183 27.7148 40.761C26.6836 40.3313 25.724 39.7584 24.8359 39.0422C23.9766 38.3547 23.2389 37.5527 22.623 36.636C22.0072 35.7193 21.5273 34.7167 21.1836 33.6282C20.8112 32.5396 20.625 31.3938 20.625 30.1907V23.1868C21.9427 23.9029 23.2174 24.1822 24.4492 24.0247C25.681 23.8671 26.8125 23.3014 27.8438 22.3274C28.0729 22.1269 28.2806 21.912 28.4668 21.6829C28.653 21.4537 28.8177 21.2389 28.9609 21.0383C28.9609 21.0383 28.9609 21.0312 28.9609 21.0168C28.9609 21.0025 28.9609 20.9954 28.9609 20.9954C29.0755 21.1386 29.319 21.4465 29.6914 21.9192C30.0638 22.3918 30.5794 22.8144 31.2383 23.1868C31.8971 23.5878 32.7422 23.8671 33.7734 24.0247C34.8047 24.1822 35.9792 23.9029 37.2969 23.1868V29.5461C37.2969 29.7467 37.3613 29.9042 37.4902 30.0188C37.6191 30.1334 37.7695 30.1907 37.9414 30.1907C38.1133 30.1907 38.2637 30.1334 38.3926 30.0188C38.5215 29.9042 38.5859 29.7467 38.5859 29.5461V23.1008C38.5859 22.6139 38.3854 22.2486 37.9844 22.0051C37.5833 21.7616 37.168 21.7688 36.7383 22.0266ZM18.9062 12.5305L18.1328 13.4329C18.0469 13.5474 17.9323 13.6047 17.7891 13.6047C17.6458 13.6047 17.5169 13.5474 17.4023 13.4329L16.6289 12.5305H18.9062ZM23.0312 22.7141V18.9329C23.4036 19.5058 23.7259 20.1073 23.998 20.7375C24.2702 21.3678 24.4779 22.0123 24.6211 22.6711C24.3633 22.7284 24.1055 22.7642 23.8477 22.7786C23.5898 22.7929 23.3177 22.7714 23.0312 22.7141ZM25.8672 22.1985C25.6094 21.1672 25.2298 20.179 24.7285 19.2336C24.2272 18.2883 23.6185 17.4003 22.9023 16.5696C22.7018 16.3404 22.4583 16.276 22.1719 16.3762C21.8854 16.4765 21.7422 16.6842 21.7422 16.9993V22.2844C21.6276 22.2271 21.4987 22.1627 21.3555 22.0911C21.2122 22.0194 21.1406 21.9836 21.1406 21.9836C20.7109 21.7831 20.3027 21.8046 19.916 22.0481C19.5293 22.2916 19.3359 22.6425 19.3359 23.1008V30.1907C19.3359 31.537 19.5436 32.8476 19.959 34.1223C20.3743 35.3971 20.9688 36.5787 21.7422 37.6672V42.5657C21.7422 42.8235 21.6562 43.0455 21.4844 43.2317C21.3125 43.4179 21.0833 43.511 20.7969 43.511H19.3789C19.1211 43.511 18.8991 43.4179 18.7129 43.2317C18.5267 43.0455 18.4336 42.8235 18.4336 42.5657V29.3313C18.4336 29.1308 18.3691 28.9732 18.2402 28.8586C18.1113 28.7441 17.9609 28.6868 17.7891 28.6868C17.6172 28.6868 17.4668 28.7441 17.3379 28.8586C17.209 28.9732 17.1445 29.1308 17.1445 29.3313V42.5657C17.1445 42.8235 17.0514 43.0455 16.8652 43.2317C16.679 43.4179 16.457 43.511 16.1992 43.511H14.7383C14.4805 43.511 14.2585 43.4179 14.0723 43.2317C13.8861 43.0455 13.793 42.8235 13.793 42.5657V16.8704C13.793 16.5553 13.6569 16.3476 13.3848 16.2473C13.1126 16.1471 12.8763 16.2115 12.6758 16.4407C11.5299 17.7297 10.6634 19.1549 10.0762 20.7161C9.48893 22.2773 9.19531 23.9172 9.19531 25.636C9.19531 25.9797 9.06641 26.2734 8.80859 26.5168C8.55078 26.7603 8.25 26.8821 7.90625 26.8821C7.5625 26.8821 7.27604 26.7532 7.04688 26.4954C6.81771 26.2375 6.70312 25.9368 6.70312 25.593C6.70312 24.0461 6.88932 22.6425 7.26172 21.3821C7.60547 20.1217 8.04232 18.9902 8.57227 17.9875C9.10221 16.9849 9.66797 16.1256 10.2695 15.4094C10.8711 14.6933 11.4154 14.106 11.9023 13.6477C12.2747 13.2753 12.7116 12.996 13.2129 12.8098C13.7142 12.6236 14.2227 12.5305 14.7383 12.5305H14.9531L16.457 14.2922C16.8008 14.6933 17.2448 14.8938 17.7891 14.8938C18.3333 14.8938 18.7773 14.6933 19.1211 14.2922L20.582 12.5305H20.7969C21.3125 12.5305 21.7923 12.6165 22.2363 12.7883C22.6803 12.9602 23.0885 13.218 23.4609 13.5618C24.1771 14.2206 24.9577 15.1086 25.8027 16.2258C26.6478 17.343 27.3424 18.7037 27.8867 20.3079C27.6576 20.6803 27.3639 21.0312 27.0059 21.3606C26.6478 21.69 26.2682 21.9693 25.8672 22.1985Z" fill="white"/>
</g>
<defs>
<clipPath id="clip0_804_2541">
<rect width="44" height="44" fill="white" transform="matrix(1 0 0 -1 0 44.8)"/>
</clipPath>
</defs>
</svg>
