<svg width="44" height="45" viewBox="0 0 44 45" fill="none" xmlns="http://www.w3.org/2000/svg">
<path d="M39.0153 13.175C39.1872 13.175 39.3591 13.2109 39.5309 13.2825C39.7028 13.3541 39.8604 13.4615 40.0036 13.6047C40.3187 13.8912 40.4977 14.2206 40.5407 14.593C40.5837 14.9654 40.4906 15.2805 40.2614 15.5383L39.7888 16.054C39.445 15.7102 39.0941 15.3808 38.736 15.0657C38.3779 14.7506 37.9984 14.4498 37.5973 14.1633L38.113 13.5618C38.2276 13.4185 38.3636 13.3183 38.5212 13.261C38.6787 13.2037 38.8434 13.175 39.0153 13.175ZM29.0466 12.5305C30.9372 12.5305 32.7276 12.8886 34.4177 13.6047C36.0791 14.3209 37.5329 15.302 38.779 16.5481C40.0251 17.7942 41.0062 19.2623 41.7223 20.9524C42.4385 22.6139 42.7966 24.4042 42.7966 26.3235C42.7966 28.2141 42.4385 30.0045 41.7223 31.6946C41.0062 33.356 40.0251 34.8098 38.779 36.0559C37.5329 37.302 36.0791 38.2974 34.4177 39.0422C32.7276 39.7584 30.9372 40.1165 29.0466 40.1165C27.2705 40.1165 25.6091 39.8515 24.0622 39.3215C22.5153 38.7916 20.5674 38.1256 18.2184 37.3235L19.1208 36.4641C19.35 36.2063 19.4789 35.9055 19.5075 35.5618C19.5361 35.218 19.4789 34.9172 19.3356 34.6594C19.1638 34.4016 18.9131 34.2011 18.5837 34.0579C18.2542 33.9146 17.9177 33.9146 17.5739 34.0579C16.4854 34.4589 15.5472 34.6594 14.7595 34.6594C13.9717 34.6594 13.277 34.4875 12.6755 34.1438C12.2171 33.886 11.7875 33.5136 11.3864 33.0266C10.9854 32.5396 10.6416 31.9524 10.3552 31.2649C10.6703 31.3795 11.0427 31.4439 11.4723 31.4583C11.902 31.4726 12.2888 31.4511 12.6325 31.3938C13.1768 31.3079 13.6709 31.1646 14.1149 30.9641C14.5589 30.7636 14.9242 30.5201 15.2106 30.2336C15.3825 30.0618 15.5401 29.8756 15.6833 29.675C15.8265 29.4745 15.9268 29.274 15.9841 29.0735C16.0414 28.8443 16.0557 28.6152 16.027 28.386C15.9984 28.1568 15.9125 27.9563 15.7692 27.7844C15.626 27.6125 15.4398 27.4765 15.2106 27.3762C14.9815 27.276 14.738 27.2258 14.4802 27.2258C14.2223 27.1972 13.9359 27.2115 13.6208 27.2688C13.3057 27.3261 12.9476 27.412 12.5466 27.5266C11.6872 27.8131 10.835 27.9062 9.98993 27.8059C9.14487 27.7056 8.33563 27.412 7.56219 26.925C6.90334 26.524 6.29461 25.9941 5.73602 25.3352C5.17743 24.6764 4.66896 23.8456 4.21063 22.843C4.69761 23.0149 5.15594 23.1152 5.58563 23.1438C6.01532 23.1724 6.40204 23.1724 6.74579 23.1438C7.26141 23.0579 7.74123 22.9146 8.18524 22.7141C8.62925 22.5136 9.05177 22.2987 9.45282 22.0696C10.2263 21.6112 11.0212 21.2102 11.8376 20.8665C12.654 20.5227 13.764 20.537 15.1677 20.9094C15.3682 20.9667 15.5401 20.9237 15.6833 20.7805C15.8265 20.6373 15.8838 20.4654 15.8552 20.2649C15.7119 19.692 15.4899 19.1978 15.1891 18.7825C14.8884 18.3671 14.4945 18.0448 14.0075 17.8157C13.721 17.6438 13.3558 17.5077 12.9118 17.4075C12.4678 17.3072 11.988 17.2428 11.4723 17.2141C12.1026 16.6698 12.7901 16.2831 13.5348 16.054C14.2796 15.8248 15.0817 15.6529 15.9411 15.5383C17.001 15.3951 18.111 15.2519 19.2712 15.1086C20.4313 14.9654 21.5557 14.6217 22.6442 14.0774C23.7328 13.5331 24.7998 13.1392 25.8454 12.8958C26.891 12.6523 27.958 12.5305 29.0466 12.5305ZM28.1442 10.0383H29.9489V11.4563C29.777 11.4563 29.6195 11.4563 29.4763 11.4563C29.333 11.4563 29.1898 11.4563 29.0466 11.4563C28.8747 11.4563 28.7171 11.4563 28.5739 11.4563C28.4307 11.4563 28.2875 11.4563 28.1442 11.4563V10.0383ZM26.5114 6.72974H31.5388C31.682 6.72974 31.8037 6.77987 31.904 6.88013C32.0042 6.98039 32.0544 7.10213 32.0544 7.24536V8.44849C32.0544 8.59172 32.0042 8.71346 31.904 8.81372C31.8037 8.91398 31.682 8.96411 31.5388 8.96411H26.5114C26.3682 8.96411 26.2464 8.91398 26.1462 8.81372C26.0459 8.71346 25.9958 8.59172 25.9958 8.44849V7.24536C25.9958 7.10213 26.0459 6.98039 26.1462 6.88013C26.2464 6.77987 26.3682 6.72974 26.5114 6.72974ZM26.5114 5.65552C26.0817 5.65552 25.7093 5.81307 25.3942 6.12817C25.0791 6.44328 24.9216 6.81567 24.9216 7.24536V8.44849C24.9216 8.87817 25.0791 9.25057 25.3942 9.56567C25.7093 9.88078 26.0817 10.0383 26.5114 10.0383H27.07V11.5852C26.2679 11.6998 25.473 11.8788 24.6852 12.1223C23.8975 12.3658 23.1312 12.6737 22.3864 13.0461C21.2979 13.5618 20.2022 13.8912 19.0993 14.0344C17.9964 14.1777 16.9007 14.3209 15.8122 14.4641C14.7236 14.6073 13.6638 14.8723 12.6325 15.259C11.6013 15.6458 10.6703 16.3691 9.83954 17.429C9.69631 17.6008 9.67482 17.787 9.77508 17.9875C9.87534 18.1881 10.0401 18.2883 10.2692 18.2883C11.0427 18.2597 11.6944 18.2883 12.2243 18.3743C12.7542 18.4602 13.1911 18.5891 13.5348 18.761C13.7354 18.8756 13.9144 19.0045 14.072 19.1477C14.2295 19.2909 14.3656 19.4628 14.4802 19.6633C13.1052 19.4915 11.9951 19.5989 11.1501 19.9856C10.305 20.3723 9.55308 20.7519 8.89422 21.1243C8.49318 21.3534 8.11362 21.554 7.75555 21.7258C7.39748 21.8977 7.01792 22.0123 6.61688 22.0696C6.21584 22.1269 5.76467 22.1054 5.26336 22.0051C4.76206 21.9049 4.16766 21.6972 3.48016 21.3821C3.27964 21.2675 3.08628 21.289 2.90008 21.4465C2.71388 21.6041 2.66375 21.7974 2.74969 22.0266C3.23667 23.4016 3.84539 24.5761 4.57586 25.55C5.30633 26.524 6.11558 27.2974 7.0036 27.8704C7.92026 28.4146 8.8799 28.7512 9.8825 28.8801C10.8851 29.009 11.8877 28.9016 12.8903 28.5579C13.1195 28.5006 13.3272 28.4504 13.5134 28.4075C13.6996 28.3645 13.8643 28.3287 14.0075 28.3C14.6377 28.2428 14.9528 28.3359 14.9528 28.5793C14.9528 28.8228 14.7809 29.1308 14.4372 29.5032C14.3226 29.6464 14.0791 29.804 13.7067 29.9758C13.3343 30.1477 12.919 30.2623 12.4606 30.3196C12.0023 30.4055 11.5368 30.4127 11.0641 30.3411C10.5915 30.2695 10.1546 30.1047 9.7536 29.8469C9.52443 29.7323 9.30959 29.7467 9.10907 29.8899C8.90855 30.0331 8.85125 30.2336 8.93719 30.4915C9.2523 31.5514 9.67482 32.4752 10.2048 33.2629C10.7347 34.0507 11.3864 34.6594 12.1598 35.0891C12.9046 35.5188 13.764 35.7336 14.738 35.7336C15.7119 35.7336 16.7861 35.5045 17.9606 35.0461C18.0752 35.0175 18.1611 35.0175 18.2184 35.0461C18.2757 35.0748 18.333 35.1321 18.3903 35.218C18.4476 35.2753 18.4691 35.3469 18.4548 35.4329C18.4404 35.5188 18.4046 35.6047 18.3473 35.6907L16.8434 37.1946C16.7289 37.3378 16.6931 37.5025 16.736 37.6887C16.779 37.8749 16.8864 37.9967 17.0583 38.054C19.6937 38.9706 21.8421 39.7226 23.5036 40.3098C25.1651 40.8971 27.0127 41.1907 29.0466 41.1907C31.0804 41.1907 32.9997 40.804 34.8044 40.0305C36.6091 39.2571 38.1846 38.1972 39.5309 36.8508C40.8773 35.5045 41.9372 33.929 42.7106 32.1243C43.4841 30.2909 43.8708 28.3573 43.8708 26.3235C43.8708 24.5188 43.5772 22.8144 42.9899 21.2102C42.4027 19.606 41.5791 18.1594 40.5192 16.8704L41.0778 16.2258C41.5075 15.7389 41.6865 15.1659 41.6149 14.5071C41.5433 13.8482 41.2497 13.2896 40.7341 12.8313C40.5049 12.6021 40.2328 12.4231 39.9177 12.2942C39.6026 12.1653 39.2875 12.1008 38.9723 12.1008C38.6572 12.1008 38.3565 12.1653 38.07 12.2942C37.7835 12.4231 37.5257 12.6021 37.2966 12.8313L36.652 13.5618C35.8213 13.0461 34.9261 12.6165 33.9665 12.2727C33.0069 11.929 32.0257 11.6998 31.0231 11.5852V10.0383H31.5388C31.9684 10.0383 32.3408 9.88078 32.6559 9.56567C32.971 9.25057 33.1286 8.87817 33.1286 8.44849V7.24536C33.1286 6.81567 32.971 6.44328 32.6559 6.12817C32.3408 5.81307 31.9684 5.65552 31.5388 5.65552H26.5114ZM29.0466 16.5696C30.3929 16.5696 31.6533 16.8274 32.8278 17.343C34.0023 17.8586 35.0335 18.5533 35.9216 19.427C36.8096 20.3007 37.4971 21.3248 37.9841 22.4993C38.4997 23.7024 38.7575 24.9771 38.7575 26.3235C38.7575 27.6698 38.4997 28.9303 37.9841 30.1047C37.4971 31.2792 36.8096 32.3105 35.9216 33.1985C35.0335 34.0865 34.0023 34.7883 32.8278 35.304C31.6533 35.8196 30.3929 36.0774 29.0466 36.0774C27.7002 36.0774 26.4398 35.8196 25.2653 35.304C24.0622 34.7883 23.0238 34.0865 22.1501 33.1985C21.2764 32.3105 20.5817 31.2792 20.0661 30.1047C19.5505 28.9303 19.2927 27.6698 19.2927 26.3235C19.2927 24.9771 19.5505 23.7024 20.0661 22.4993C20.5817 21.3248 21.2764 20.3007 22.1501 19.427C23.0238 18.5533 24.0622 17.8586 25.2653 17.343C26.4398 16.8274 27.7002 16.5696 29.0466 16.5696ZM29.0466 15.4954C27.557 15.4954 26.1533 15.7818 24.8356 16.3547C23.5179 16.9277 22.3721 17.7011 21.3981 18.675C20.4242 19.649 19.6507 20.7948 19.0778 22.1125C18.5049 23.4303 18.2184 24.8339 18.2184 26.3235C18.2184 27.8131 18.5049 29.2167 19.0778 30.5344C19.6507 31.8521 20.4242 32.998 21.3981 33.9719C22.3721 34.9459 23.5179 35.7193 24.8356 36.2922C26.1533 36.8652 27.557 37.1516 29.0466 37.1516C30.5361 37.1516 31.9255 36.8652 33.2145 36.2922C34.5322 35.7193 35.6852 34.9459 36.6735 33.9719C37.6618 32.998 38.4281 31.8521 38.9723 30.5344C39.5453 29.2167 39.8317 27.8131 39.8317 26.3235C39.8317 24.8339 39.5453 23.4303 38.9723 22.1125C38.4281 20.7948 37.6618 19.649 36.6735 18.675C35.6852 17.7011 34.5322 16.9277 33.2145 16.3547C31.9255 15.7818 30.5361 15.4954 29.0466 15.4954ZM28.8747 17.4719C28.7315 17.4719 28.6097 17.5292 28.5095 17.6438C28.4092 17.7584 28.3591 17.8873 28.3591 18.0305V18.804C28.3304 18.9472 28.3734 19.0761 28.488 19.1907C28.6026 19.3053 28.7315 19.3625 28.8747 19.3625C29.0466 19.3625 29.1826 19.3053 29.2829 19.1907C29.3832 19.0761 29.4333 18.9472 29.4333 18.804V18.0305C29.4333 17.8873 29.376 17.7584 29.2614 17.6438C29.1468 17.5292 29.0179 17.4719 28.8747 17.4719ZM28.8747 33.2844C28.7315 33.2844 28.6097 33.3346 28.5095 33.4348C28.4092 33.5351 28.3591 33.6711 28.3591 33.843V34.6165C28.3304 34.7597 28.3734 34.8886 28.488 35.0032C28.6026 35.1178 28.7315 35.175 28.8747 35.175C29.0466 35.175 29.1826 35.1178 29.2829 35.0032C29.3832 34.8886 29.4333 34.7597 29.4333 34.6165V33.843C29.4333 33.6711 29.376 33.5351 29.2614 33.4348C29.1468 33.3346 29.0179 33.2844 28.8747 33.2844ZM29.0466 25.5071C29.2757 25.5071 29.4619 25.5859 29.6052 25.7434C29.7484 25.901 29.82 26.0943 29.82 26.3235C29.82 26.5527 29.7484 26.746 29.6052 26.9036C29.4619 27.0611 29.2757 27.1399 29.0466 27.1399C28.8174 27.1399 28.624 27.0611 28.4665 26.9036C28.3089 26.746 28.2302 26.5527 28.2302 26.3235C28.2302 26.0943 28.3089 25.901 28.4665 25.7434C28.624 25.5859 28.8174 25.5071 29.0466 25.5071ZM32.6559 21.9836C32.5986 21.9836 32.5342 21.9908 32.4626 22.0051C32.391 22.0194 32.3408 22.0553 32.3122 22.1125L29.82 24.6047C29.7054 24.5474 29.5837 24.5045 29.4548 24.4758C29.3259 24.4472 29.1898 24.4329 29.0466 24.4329C28.5309 24.4329 28.0869 24.6191 27.7145 24.9915C27.3421 25.3639 27.1559 25.8079 27.1559 26.3235C27.1559 26.8391 27.3421 27.2831 27.7145 27.6555C28.0869 28.0279 28.5309 28.2141 29.0466 28.2141C29.5622 28.2141 29.999 28.0279 30.3571 27.6555C30.7152 27.2831 30.8942 26.8391 30.8942 26.3235C30.8942 26.123 30.8727 25.9439 30.8298 25.7864C30.7868 25.6288 30.7223 25.4784 30.6364 25.3352L33.0427 22.886C33.2432 22.7141 33.2933 22.5136 33.1931 22.2844C33.0928 22.0553 32.9138 21.955 32.6559 21.9836ZM37.7263 26.3235C37.7263 26.1803 37.6761 26.0585 37.5759 25.9583C37.4756 25.858 37.3539 25.8079 37.2106 25.8079H36.3942C36.251 25.7792 36.1221 25.8222 36.0075 25.9368C35.8929 26.0514 35.8356 26.1803 35.8356 26.3235C35.8356 26.4954 35.8929 26.6314 36.0075 26.7317C36.1221 26.832 36.251 26.8821 36.3942 26.8821H37.2106C37.3539 26.8821 37.4756 26.8248 37.5759 26.7102C37.6761 26.5956 37.7263 26.4667 37.7263 26.3235ZM21.9138 26.3235C21.9138 26.1803 21.8636 26.0585 21.7634 25.9583C21.6631 25.858 21.5414 25.8079 21.3981 25.8079H20.6247C20.4528 25.7792 20.3096 25.8222 20.195 25.9368C20.0804 26.0514 20.0231 26.1803 20.0231 26.3235C20.0231 26.4954 20.0804 26.6314 20.195 26.7317C20.3096 26.832 20.4528 26.8821 20.6247 26.8821H21.3981C21.5414 26.8821 21.6703 26.8248 21.7848 26.7102C21.8994 26.5956 21.9424 26.4667 21.9138 26.3235ZM35.1481 32.5969C35.2627 32.4823 35.3128 32.3463 35.2985 32.1887C35.2842 32.0312 35.2341 31.9094 35.1481 31.8235L34.5895 31.2649C34.475 31.1503 34.346 31.093 34.2028 31.093C34.0596 31.093 33.9307 31.1503 33.8161 31.2649C33.7015 31.3508 33.6442 31.4726 33.6442 31.6301C33.6442 31.7877 33.7015 31.9237 33.8161 32.0383L34.3747 32.5969C34.4893 32.6829 34.6182 32.7258 34.7614 32.7258C34.9046 32.7258 35.0335 32.6829 35.1481 32.5969ZM23.9763 21.425C24.0908 21.3105 24.141 21.1744 24.1266 21.0168C24.1123 20.8593 24.0622 20.7375 23.9763 20.6516L23.4177 20.093C23.3031 19.9784 23.1742 19.9211 23.0309 19.9211C22.8877 19.9211 22.7588 19.9784 22.6442 20.093C22.5296 20.179 22.4723 20.3007 22.4723 20.4583C22.4723 20.6158 22.5296 20.7519 22.6442 20.8665L23.2028 21.425C23.3174 21.511 23.4463 21.554 23.5895 21.554C23.7328 21.554 23.8617 21.511 23.9763 21.425ZM35.1481 20.05C35.0335 19.9641 34.9046 19.9211 34.7614 19.9211C34.6182 19.9211 34.4893 19.9784 34.3747 20.093L33.8161 20.6086C33.7015 20.7232 33.6442 20.8593 33.6442 21.0168C33.6442 21.1744 33.7015 21.3105 33.8161 21.425C33.9307 21.5396 34.0596 21.5898 34.2028 21.5754C34.346 21.5611 34.475 21.4967 34.5895 21.3821L35.1481 20.8235C35.2627 20.7375 35.32 20.6158 35.32 20.4583C35.32 20.3007 35.2627 20.1646 35.1481 20.05ZM23.9763 31.2219C23.8617 31.136 23.7328 31.093 23.5895 31.093C23.4463 31.093 23.3174 31.1503 23.2028 31.2649L22.6442 31.7805C22.5296 31.8951 22.4723 32.0312 22.4723 32.1887C22.4723 32.3463 22.5296 32.4823 22.6442 32.5969C22.7588 32.7115 22.8877 32.7616 23.0309 32.7473C23.1742 32.733 23.3031 32.6685 23.4177 32.554L23.9763 31.9954C24.0908 31.9094 24.1481 31.7877 24.1481 31.6301C24.1481 31.4726 24.0908 31.3365 23.9763 31.2219Z" fill="#7166F5"/>
</svg>
