<svg width="13" height="10" viewBox="0 0 13 10" fill="none" xmlns="http://www.w3.org/2000/svg">
<path d="M11.2773 2.5625C11.2773 2.67969 11.2773 2.77344 11.2773 2.89062C11.2773 6.14844 8.81641 9.875 4.29297 9.875C2.88672 9.875 1.59766 9.47656 0.519531 8.77344C0.707031 8.79688 0.894531 8.82031 1.10547 8.82031C2.25391 8.82031 3.30859 8.42188 4.15234 7.76562C3.07422 7.74219 2.16016 7.03906 1.85547 6.05469C2.01953 6.07812 2.16016 6.10156 2.32422 6.10156C2.53516 6.10156 2.76953 6.05469 2.95703 6.00781C1.83203 5.77344 0.988281 4.78906 0.988281 3.59375V3.57031C1.31641 3.75781 1.71484 3.85156 2.11328 3.875C1.43359 3.42969 1.01172 2.67969 1.01172 1.83594C1.01172 1.36719 1.12891 0.945312 1.33984 0.59375C2.55859 2.07031 4.38672 3.05469 6.42578 3.17188C6.37891 2.98438 6.35547 2.79688 6.35547 2.60938C6.35547 1.25 7.45703 0.148438 8.81641 0.148438C9.51953 0.148438 10.1523 0.429688 10.6211 0.921875C11.1602 0.804688 11.6992 0.59375 12.168 0.3125C11.9805 0.898438 11.6055 1.36719 11.0898 1.67188C11.582 1.625 12.0742 1.48438 12.4961 1.29688C12.168 1.78906 11.7461 2.21094 11.2773 2.5625Z" fill="white"/>
</svg>
