<svg width="19" height="20" viewBox="0 0 19 20" fill="none" xmlns="http://www.w3.org/2000/svg">
<path d="M12.9746 6.6123H6.40625C6.96289 3.30957 8.22461 0.97168 9.70898 0.97168C11.1562 0.97168 12.4551 3.30957 12.9746 6.6123ZM6.14648 10.1748C6.14648 9.3584 6.18359 8.5791 6.25781 7.7998H13.123C13.1973 8.5791 13.2344 9.3584 13.2344 10.1748C13.2344 11.0283 13.1973 11.8076 13.123 12.5498H6.25781C6.18359 11.8076 6.14648 11.0283 6.14648 10.1748ZM18.1699 6.6123H14.1621C13.8281 4.53418 13.2344 2.6416 12.3066 1.37988C14.9785 2.15918 17.1309 4.12598 18.1699 6.6123ZM7.07422 1.37988C6.14648 2.6416 5.55273 4.53418 5.21875 6.6123H1.21094C2.25 4.12598 4.40234 2.15918 7.07422 1.37988ZM18.5781 7.7998C18.7637 8.5791 18.875 9.3584 18.875 10.1748C18.875 11.0283 18.7637 11.8076 18.5781 12.5498H14.3105C14.3848 11.7705 14.459 10.9912 14.459 10.1748C14.459 9.39551 14.3848 8.5791 14.3105 7.7998H18.5781ZM4.95898 10.1748C4.95898 10.9912 4.99609 11.7705 5.07031 12.5498H0.802734C0.617188 11.8076 0.505859 11.0283 0.505859 10.1748C0.505859 9.3584 0.617188 8.5791 0.802734 7.7998H5.07031C4.99609 8.5791 4.95898 9.39551 4.95898 10.1748ZM6.40625 13.7373H12.9746C12.4551 17.0771 11.1562 19.3779 9.70898 19.3779C8.22461 19.3779 6.96289 17.0771 6.40625 13.7373ZM12.3066 19.0068C13.2344 17.7451 13.8652 15.8525 14.1621 13.7373H18.1699C17.1309 16.2607 14.9785 18.2275 12.3066 19.0068ZM1.21094 13.7373H5.21875C5.55273 15.8525 6.14648 17.7451 7.07422 19.0068C4.40234 18.2275 2.25 16.2607 1.21094 13.7373Z" fill="#7166F5"/>
</svg>
