<svg width="14" height="10" viewBox="0 0 14 10" fill="none" xmlns="http://www.w3.org/2000/svg">
<path d="M13.3867 1.92969C13.668 2.91406 13.668 5.02344 13.668 5.02344C13.668 5.02344 13.668 7.10938 13.3867 8.11719C13.2461 8.67969 12.8008 9.10156 12.2617 9.24219C11.2539 9.5 7.26953 9.5 7.26953 9.5C7.26953 9.5 3.26172 9.5 2.25391 9.24219C1.71484 9.10156 1.26953 8.67969 1.12891 8.11719C0.847656 7.10938 0.847656 5.02344 0.847656 5.02344C0.847656 5.02344 0.847656 2.91406 1.12891 1.92969C1.26953 1.36719 1.71484 0.921875 2.25391 0.78125C3.26172 0.5 7.26953 0.5 7.26953 0.5C7.26953 0.5 11.2539 0.5 12.2617 0.78125C12.8008 0.921875 13.2461 1.36719 13.3867 1.92969ZM5.95703 6.92188L9.28516 5.02344L5.95703 3.125V6.92188Z" fill="white"/>
</svg>
